<svg xmlns="http://www.w3.org/2000/svg" xmlns:xlink="http://www.w3.org/1999/xlink" version="1.1" width="1000" height="1000" viewBox="0 0 1000 1000" xml:space="preserve">
<desc>Created with Fabric.js 3.5.0</desc>
<defs>
</defs>
<rect x="0" y="0" width="100%" height="100%" fill="rgba(255,255,255,0)"/>
<g transform="matrix(0 0.2373 -0.2373 0 500.0562 591.1)" id="560403">
<g style="" vector-effect="non-scaling-stroke">
		<g transform="matrix(1 0 0 1 -388.9 -12.8667)">
<path style="stroke: none; stroke-width: 1; stroke-dasharray: none; stroke-linecap: butt; stroke-dashoffset: 0; stroke-linejoin: miter; stroke-miterlimit: 4; is-custom-font: none; font-file-url: none; fill: currentColor; fill-rule: nonzero; opacity: 1;" transform=" translate(-2611.1, -1674.6333)" d="M 3346.2 3267.2 c -72.8 -9.4 -95.2 -12.8 -96.4 -15.2 c -1 -1.6 -53 -204.6 -115.8 -451 c -135.8 -532.8 -121.8 -479 -125.2 -479 c -1.6 0 -2.8 -0.8 -2.8 -2 c 0 -1 -2.6 -2 -6 -2 c -3.2 0 -6 -0.8 -6 -2 c 0 -1 -1.8 -2 -4 -2 c -2.2 0 -4 -1 -4 -2.2 c 0 -1.2 -3.8 -1.8 -9.2 -1.4 l -9.4 0.6 l -194 415.6 c -106.8 228.4 -194.8 415.4 -195.6 415.4 c -2.2 0 -186.4 -86 -188.6 -88 c -1 -1 7 -20.2 18.2 -44.4 c 151.8 -324 370.6 -793.6 370.6 -795.4 c 0 -2.8 -5.4 -3 -7 -0.2 c -2 3.2 -4 2.4 -10.4 -3.4 c -8 -7.6 -13.6 -10.6 -19.6 -10.6 c -2.8 0 -5 -1.2 -5 -2.6 c 0 -1.4 -3.2 -3.8 -7 -5.4 c -3.8 -1.6 -7 -3.4 -7 -4.4 c 0 -0.8 -1.4 -1.6 -3 -1.6 c -3.8 0 -11 -4 -15.2 -8.4 c -1.8 -2 -6 -3.6 -9.4 -3.6 c -4.8 0 -6.2 -1 -6.8 -4.4 c -0.4 -3.8 -2 -4.8 -8.8 -5.2 c -6.2 -0.4 -10.4 -2.6 -17 -8.4 c -4.8 -4.4 -10 -8 -11.2 -8 c -1.4 0 -2.6 -1.4 -2.6 -3 c 0 -1.6 -1.4 -3 -3 -3 c -1.8 0 -5 -1.8 -7.4 -4 c -2.4 -2.2 -6 -4 -8 -4 c -2 0 -3.6 -0.6 -3.6 -1.6 c 0 -0.8 -3.6 -3 -7.8 -4.8 c -4.4 -2 -8.4 -5 -9 -7 c -0.6 -2 -4 -4.8 -7.6 -6.2 c -12.2 -5.2 -24.6 -11.4 -25.2 -12.8 c -0.4 -1 -1.8 -1.6 -3.2 -1.6 c -1.4 0 -55.4 169.8 -135.2 425 c -73 233.8 -133.4 426 -134.2 427.2 c -0.8 1.4 -66.2 -18.2 -200 -60 c -109.4 -34.2 -206 -64.8 -214.8 -68.2 c -22.4 -8.8 -58.8 -27.4 -79 -40.4 c -112 -72.4 -160.4 -187.4 -134 -317.8 c 22.2 -109 83 -193.8 168.8 -234.8 c 22 -10.4 45.2 -17.8 74.6 -23.6 l 21.8 -4.4 l -36.6 -152 c -20 -83.6 -38.4 -160.4 -40.8 -170.4 l -4.2 -18.6 l -6.8 0 c -3.8 0 -6.8 -0.8 -6.8 -2 c 0 -1 -1.8 -2 -4 -2 c -2.2 0 -4 -0.8 -4 -2 c 0 -1 -4 -2 -8.6 -2 c -4.8 0 -13.2 -1.4 -18.6 -3 c -5.4 -1.6 -12.2 -3 -15.2 -3 c -3.6 0 -5.6 -1 -5.6 -3 c 0 -1.6 -1.8 -3 -4 -3 c -2.2 0 -4 -0.8 -4 -2 c 0 -1 -2.6 -2 -5.8 -2 c -3.2 0 -6.2 -1 -6.6 -2.2 c -0.4 -1.2 -3.2 -2.2 -6.2 -2.2 c -3 0 -5.4 -0.8 -5.4 -1.8 c 0 -1 -1.4 -1.8 -3 -1.8 c -1.6 0 -3 -1 -3 -2.2 c 0 -1.4 -1.8 -1.8 -4.4 -1.2 c -4.8 1.4 -15.6 -4.2 -15.6 -7.8 c 0 -1.6 -4.6 -3 -11.4 -4 c -6.4 -0.8 -13.8 -3 -16.4 -5 c -2.8 -2.2 -8 -3.8 -12.4 -3.8 c -4.4 0 -7.8 -0.8 -7.8 -2 c 0 -1 -1.8 -2 -3.8 -2 c -2.2 0 -4.6 -0.8 -5.2 -2 c -0.6 -1 -2.8 -2 -4.8 -2 c -2.2 0 -4.2 -1.8 -4.8 -4.2 c -0.6 -2.4 -2 -3.6 -3.2 -3 c -1 0.8 -2.4 0.4 -3.2 -0.8 c -0.6 -1 -3 -2 -5.2 -2 c -2 0 -3.8 -0.8 -3.8 -1.8 c 0 -1 -1.6 -2.2 -3.4 -2.8 c -2 -0.6 -5.8 -2.4 -8.6 -4.2 c -2.8 -1.6 -6.6 -3.4 -8.4 -4 c -2 -0.6 -3.6 -3 -3.6 -5.2 c 0 -2.2 -1.2 -4 -2.8 -4 c -3.4 0 -17.8 -8 -18.8 -10.4 c -0.4 -0.8 -3.4 -1.6 -6.6 -1.6 c -3.2 0 -5.8 -0.8 -5.8 -1.8 c 0 -1 -2.6 -2.2 -6 -2.8 c -3.2 -0.8 -7.6 -3.2 -9.4 -5.4 c -2 -2.2 -4.6 -4 -6 -4 c -1.4 0 -2.6 -0.8 -2.6 -2 c 0 -1 -2.2 -2 -4.6 -2 c -2.6 0 -7.4 -2.6 -10.6 -6 c -3.2 -3.2 -7.6 -6 -10 -6 c -2.2 0 -6.8 -3.2 -10.2 -7 c -3.4 -3.8 -6.8 -7 -7.4 -7 c -0.6 0 -3 -1.8 -5.2 -4 c -2.2 -2.2 -5.4 -4 -7 -4 c -1.6 0 -3 -1.2 -3 -2.8 c 0 -1.4 -3.2 -4.2 -7 -6 c -3.8 -1.8 -7 -4.2 -7 -5.2 c 0 -3.2 -7.8 -10 -11.2 -10 c -1.8 0 -5.8 -2.6 -8.8 -6 c -3 -3.2 -6.6 -6 -7.8 -6 c -1.2 0 -2.2 -0.8 -2.2 -2 c 0 -1 -1.8 -2 -4 -2 c -2.2 0 -4 -1.4 -4 -3 c 0 -1.6 -1.4 -3 -3 -3 c -1.6 0 -3 -0.8 -3 -1.8 c 0 -1 -3.2 -5.2 -7.2 -9.4 c -3.8 -4.4 -8.4 -10.8 -10.2 -14.2 c -1.6 -3.6 -3.8 -6.6 -4.8 -6.6 c -1 0 -1.8 -1.4 -1.8 -3 c 0 -1.8 -1.4 -3.6 -3.2 -4.4 c -4.8 -1.8 -12.8 -10.4 -12.8 -13.8 c 0 -1.6 -0.8 -4 -2 -5.4 c -7.4 -8.8 -13.4 -14.8 -16.4 -16 c -2 -0.6 -3.6 -3.2 -3.6 -5.4 c 0 -2.4 -2 -6.2 -4.6 -8.8 c -2.6 -2.6 -6 -7.8 -7.4 -11.4 c -1.6 -3.8 -4.4 -8.2 -6.4 -10 c -2 -1.8 -3.6 -4 -3.6 -4.8 c 0 -0.8 -3.6 -4.8 -8 -9 c -4.4 -4.2 -8 -9.4 -8 -11.8 c 0 -2.2 -0.8 -4.2 -2 -4.2 c -1 0 -2.6 -2.4 -3.2 -5.4 c -0.8 -3.2 -2 -6 -2.6 -6.6 c -0.6 -0.6 -3.8 -6.2 -7 -12.4 c -3.2 -6.4 -7 -11.6 -8.4 -11.6 c -1.4 0 -3.2 -1.8 -3.8 -4 c -0.6 -2.2 -2.2 -4 -3.2 -4 c -1 0 -1.8 -2.4 -1.8 -5.2 c 0 -2.8 -1.6 -7.6 -3.8 -10.4 c -2 -3 -5.2 -10.8 -7 -17.4 c -2 -6.6 -4.8 -14.6 -6.4 -17.6 c -1.6 -3.2 -2.8 -8.6 -2.8 -12.2 c 0 -3.8 -1.8 -8.6 -4 -11.2 c -2.2 -2.6 -4 -5.4 -4 -6.4 c 0 -0.8 -2.6 -1.6 -6 -1.6 c -3.2 0 -6 1 -6 2 c 0 1.2 -5.2 2 -11.6 2 c -6.6 0 -19.8 0.6 -29.6 1.2 c -16.8 1.2 -18.2 1.6 -20.4 6.4 c -1.4 2.8 -2.4 9.8 -2.4 15.6 c 0 7 -0.8 10.8 -2.8 11.4 c -2 0.8 -3.2 8 -4.2 28.8 c -0.8 15.2 -1.4 29.8 -1.4 32.6 c 0.2 10.2 3 27 4.8 29.6 c 1.4 1.6 1.4 2.4 -0.2 2.4 c -3.2 0 -2.8 6.6 0.8 11.2 c 1.6 2 3 6.8 3 10.4 c 0 4 1 6.4 2.8 6.4 c 3.6 0 5.2 6.2 5.2 20.4 c 0 6.2 1 12 2 12.6 c 1.2 0.6 2 3 2 5.4 c 0 2.2 1.2 6.4 2.8 9.2 c 1.6 3 3.8 12.2 5 20.4 c 4.2 27.8 5.4 33 9.8 42.2 c 2.4 5 4.4 11.8 4.4 15.2 c 0 3.2 1.8 8 4 10.6 c 4.8 5.6 5 7.8 1 9.2 c -3.8 1.6 -3.8 4.8 0 4.8 c 2.2 0 3 2.2 3 7.6 c 0.2 4 0.6 12.4 1.2 18.4 c 1.6 19.8 5 84.6 5.4 105.8 c 0.4 15.2 -0.2 21 -2 21.6 c -1.4 0.6 -2.6 4 -2.6 7.8 c 0 3.8 -0.8 6.8 -2 6.8 c -1 0 -2 2.2 -2 4.8 c 0 2.8 -1 5.6 -2 6.2 c -1.2 0.6 -2 4.8 -2 9.2 c 0 4.2 -0.8 7.8 -1.8 7.8 c -1 0 -2.2 3 -2.8 6.6 c -2.4 15.2 -7.8 36.4 -9.6 37 c -1 0.4 -1.8 2 -1.8 3.6 c 0 1.6 -0.8 4.4 -1.8 6.4 c -2.6 5.2 -6.2 17.2 -6.2 21 c 0 1.8 -0.8 3.4 -1.6 3.4 c -1 0 -2.8 4.6 -4.2 10 c -1.4 5.6 -3.4 10 -4.4 10 c -1 0 -1.8 3.2 -1.8 7.2 c 0 4 -1.2 8.4 -2.8 9.6 c -1.6 1.2 -4.8 8 -7.2 15.2 c -7 19.8 -11.6 30 -14 30 c -1 0 -2 1.8 -2 4 c 0 2.2 -1.2 4 -2.6 4 c -2.4 0 -5.6 4.8 -8.6 12.6 c -0.6 1.8 -2 3.4 -3 3.4 c -1 0 -1.8 1.6 -1.8 3.6 c 0 2 -3.6 7.4 -8 12 c -4.4 4.4 -8 9 -8 10 c 0 1 -3.6 5.6 -8 10.2 c -4.4 4.4 -8 8.8 -8 9.4 c 0 2 -5.6 6.8 -7.8 6.8 c -1.2 0 -2.2 1.6 -2.2 3.6 c 0 2 -3.4 6.6 -7.4 10.6 c -4.2 3.8 -9.4 10.4 -11.6 14.6 c -2.2 4.2 -5.6 8.2 -7.4 8.8 c -2 0.4 -3.6 2 -3.6 3.4 c 0 1.6 -1.6 3.2 -3.6 3.8 c -1.8 0.6 -6.4 5.6 -10.2 11.2 c -3.8 5.4 -9.8 12.4 -13.6 15.2 c -9.8 7.4 -16.6 14.6 -16.6 17.6 c 0 3 -7.4 11.2 -10.2 11.2 c -1 0 -4.2 2 -6.8 4.6 c -7.4 6.8 -10.8 9.4 -12.2 9.4 c -1.6 0 -8 6.8 -13.8 14.6 c -2.2 3 -5.6 5.4 -7.4 5.4 c -2 0 -3.6 0.8 -3.6 1.8 c 0 1 -2 2.6 -4.4 3.4 c -5 1.4 -13.6 9.6 -13.6 12.8 c 0 1 -0.8 2 -2 2 c -1 0 -4 2.2 -6.8 5 c -2.8 2.8 -6 5 -7.2 5 c -2.2 0 -5 2 -13 9.6 c -2.6 2.4 -6.2 4.4 -8 4.4 c -1.6 0 -3 1.4 -3 3 c 0 1.6 -1.4 3 -3 3 c -2 0 -3 2.2 -3 7 c 0 4.8 1 7 3 7 c 4.8 0 3.4 3.4 -2 4.8 c -3.2 0.8 -5 2.6 -5 5.2 c 0 2 -1.8 4.4 -4 5 c -2.2 0.8 -3.6 2.2 -3 3.2 c 2.6 4 -3.8 1.6 -8.2 -3.2 c -2.6 -2.8 -5.4 -5 -6.6 -5 c -1 0 -2.2 -1 -2.6 -2.4 c -0.6 -1.8 -2.6 -1.8 -7.8 -0.4 c -5.6 1.6 -8.4 1.2 -15.2 -2 c -9.8 -4.8 -10.6 -6.6 -3.6 -8.4 c 3.8 -1 5 -2.6 5 -6.8 c 0 -3.2 1 -6 2.4 -6.4 c 3 -1 -3.8 -11.6 -7.6 -11.6 c -1.6 0 -2.8 -1.2 -2.8 -2.8 c 0 -1.6 -0.6 -3.2 -1.4 -3.6 c -2.2 -0.8 -12.6 -22 -12.6 -25 c 0 -1.4 -0.8 -2.6 -2 -2.6 c -1 0 -2.4 -2.2 -3.2 -5 c -0.6 -2.8 -2 -5 -3 -5 c -1 0 -1.8 -1.8 -1.8 -4 c 0 -2.2 -1.2 -4 -2.4 -4 c -2.8 -0.2 -9.6 -12.2 -9.6 -17 c 0 -2.8 -9 -20.4 -12.2 -23.8 c -1 -1.2 -1.8 -4.6 -1.8 -7.6 c 0 -3 -0.8 -5.6 -1.6 -5.6 c -1.6 0 -6.6 -11.6 -8.6 -20 c -0.6 -2.8 -2 -4.8 -3.2 -4.6 c -1.2 0.2 -2.8 -3 -3.6 -7.4 c -0.8 -4.4 -2.2 -8.4 -3.2 -9.2 c -1 -0.6 -1.8 -3.2 -1.8 -6 c 0 -2.6 -0.8 -4.8 -1.8 -4.8 c -1 0 -2.4 -2.6 -3.2 -6 c -0.8 -3.2 -2.2 -6.4 -3.2 -7 c -1 -0.8 -1.8 -3 -1.8 -5 c 0 -2 -2.2 -8 -5 -13.2 c -2.8 -5.2 -5 -12.4 -5 -16 c 0 -4.6 -1.2 -7.4 -4 -8.8 c -2.8 -1.6 -4 -4.2 -4 -9 c 0 -3.8 -0.6 -7 -1.6 -7 c -2.8 0 -6.8 -19 -8.8 -43 c -1 -13.2 -2.8 -25.8 -4.2 -28 c -1.2 -2.2 -2.4 -17 -2.8 -34.6 c -0.2 -16.8 -1 -31.4 -1.4 -32.2 c -0.6 -0.8 -0.2 -2.6 1 -4.2 c 1 -1.6 1.8 -9.6 1.8 -17.4 c 0 -9.4 0.8 -14.6 2.2 -14.6 c 1.6 0 1.8 -2.8 1 -8.8 c -0.8 -5.4 -0.6 -9.4 0.8 -10.2 c 1 -0.6 2 -5.2 2 -10.2 c 0 -6 1 -9.2 3 -10 c 1.8 -0.8 3 -3.8 3 -7 c 0 -3.2 0.8 -5.8 1.8 -5.8 c 1 0 2.2 -3.8 2.8 -8.4 c 0.4 -4.8 1.6 -10.8 2.4 -13.6 c 0.8 -2.8 2 -8.8 2.4 -13.4 c 0.6 -4.8 1.8 -8.6 2.8 -8.6 c 1 0 1.8 -1.8 1.8 -4 c 0 -2.2 1 -4 2 -4 c 1.2 0 2 -1.4 2 -3 c 0 -1.6 1.4 -3 3 -3 c 2.2 0 3 -2.2 3 -7.8 c 0 -4.4 1 -8.6 2 -9.2 c 1.2 -0.6 2 -3.4 2 -6.2 c 0 -2.6 0.8 -4.8 1.6 -4.8 c 1 0 2.8 -4.4 4.2 -10 c 1.4 -5.4 3.4 -10 4.4 -10 c 1 0 1.8 -1.8 1.8 -3.8 c 0 -2.2 1 -4.6 2 -5.2 c 1.2 -0.6 2 -3 2 -5.2 c 0 -2 1 -3.8 2 -3.8 c 1.2 0 2 -1.4 2 -3 c 0 -1.6 1.4 -3 3.2 -3 c 2.4 0 3 -1.2 2.2 -4.2 c -0.6 -2.4 0 -4.4 1.8 -5.2 c 1.6 -0.6 2.8 -2.8 2.8 -4.8 c 0 -2 1 -3.8 2 -3.8 c 1.2 0 2 -1.8 2 -4 c 0 -2.2 2.6 -8.4 6 -13.6 c 3.2 -5.4 6 -10.8 6 -12 c 0 -1.4 2.2 -2.8 4.8 -3.6 c 4 -1 4.8 -2.4 4.6 -8.4 c -0.2 -4 0.8 -7.4 2.2 -8 c 1.4 -0.4 2.4 -2.4 2.4 -4.6 c 0 -2 0.8 -3.8 1.8 -3.8 c 0.8 0 2.2 -3.2 2.8 -7 c 0.6 -4 3.6 -9.8 6.8 -13 c 9.4 -9.8 10.6 -11.6 10.6 -16 c 0 -2.2 0.8 -4 1.8 -4 c 1 0 2.4 -2.2 3 -5 c 0.6 -2.6 3.4 -7 6.2 -9.8 c 2.8 -2.8 5 -6 5 -7.2 c 0 -1 1 -2 2 -2 c 1.2 0 2 -1.2 2 -2.6 c 0 -1.6 1.6 -4.6 3.4 -7 c 2 -2.2 5.2 -6 7 -8.2 c 2 -2.4 3.6 -5.6 3.6 -7.2 c 0 -1.6 0.6 -3 1.6 -3 c 0.8 0 2.6 -2.8 4 -6 c 1.6 -3.4 3.6 -6 4.8 -6 c 3 0 7.6 -5.4 7.6 -8.8 c 0 -1.6 1 -3.6 2 -4.2 c 1.2 -0.6 2 -3 2 -5.4 c 0 -2.2 2.8 -6.6 6 -9.6 c 3.4 -3 6 -6.4 6 -7.6 c 0 -1 1.4 -2.4 3 -3.2 c 1.6 -0.6 3 -2.4 3 -4 c 0 -1.6 1.8 -3.6 4 -4.2 c 2.2 -0.6 4 -2.4 4 -3.6 c 0 -1.4 1.8 -3.8 4 -5.4 c 2.2 -1.6 4 -4.2 4 -6 c 0.2 -3.4 4.6 -10 7 -10 c 2.4 0 6.8 -6.6 7 -10.6 c 0 -4.6 8.8 -13.4 13.2 -13.4 c 2.4 0 3 -1.2 2.2 -4.2 c -0.8 -3 0 -4.6 2.6 -5.2 c 2.2 -0.6 5 -4 6.4 -7.8 c 1.4 -3.8 3.2 -6.8 4 -6.8 c 1 0 2.6 -2.2 3.6 -5 c 1 -2.8 2.8 -5 4 -5 c 1.2 0 3.6 -1.4 5.2 -3 c 1.8 -1.6 5.2 -3 8 -3 c 3.4 0 4.8 -1 4.8 -4 c 0 -2.4 1.8 -6.2 4 -8.4 l 4 -4.4 l -4.4 -2.6 c -2.6 -1.4 -10.6 -2.4 -18 -2.6 c -7.4 0 -14 -0.8 -14.6 -2 c -0.6 -1.2 -3.8 -2 -7 -2 c -9 0 -24.6 -4.6 -27.4 -8 c -1.4 -1.6 -2.6 -2.2 -2.6 -1.2 c 0 0.8 -2.2 0.2 -5 -1.6 c -3.6 -2.4 -7.2 -3 -12 -2 c -4.6 0.8 -7 0.4 -7 -1 c 0 -1.2 -1.8 -2.2 -4 -2.2 c -2.2 0 -4 -0.8 -4 -2 c 0 -1 -1.8 -2 -4 -2 c -2.2 0 -4 -1 -4 -2.2 c 0 -1 -1.6 -1.8 -3.6 -1.6 c -8.8 0.8 -14.2 -0.6 -19.2 -5.2 c -4 -3.8 -7.6 -5 -14.2 -5 c -7.8 0 -18 -4 -26 -10 c -1 -0.8 -8.2 -3 -15.6 -5 c -7.6 -2 -14.2 -4.8 -14.8 -6.4 c -0.6 -1.4 -2.2 -2.6 -3.8 -2.6 c -1.6 0 -2.8 -0.8 -2.8 -2 c 0 -1 -2.2 -2 -5 -2 c -2.8 0 -5 -0.8 -5 -2 c 0 -1 -1.4 -2 -3 -2 c -1.6 0 -3 -0.8 -3 -1.6 c 0 -1 -5.4 -4.4 -12 -7.6 c -6.6 -3.2 -12 -6.4 -12 -7.2 c 0 -1 -1.4 -1.6 -3 -1.6 c -1.6 0 -4.8 -1.6 -7.2 -3.6 c -2.2 -1.8 -6 -5 -8.2 -6.8 c -2.2 -1.8 -6.6 -4 -9.8 -4.6 c -3.2 -0.8 -5.8 -2.2 -5.8 -3.2 c 0 -1 -1.8 -1.8 -4 -1.8 c -2.2 0 -4 -1.2 -4 -2.6 c 0 -2.6 -8 -7.4 -12.2 -7.4 c -2.2 0 -19 -11 -23.4 -15.4 c -1.4 -1.4 -3.8 -2.6 -5.4 -2.6 c -1.4 0 -3 -0.6 -3.4 -1.6 c -1.2 -3 -20.8 -16 -30 -20 c -5.4 -2.4 -9.6 -5.6 -9.6 -7.2 c 0 -1.6 -1.8 -3.6 -4 -4.2 c -2.2 -0.6 -4 -2 -4 -3 c 0 -1 -2 -2.4 -4.4 -3.2 c -2.6 -0.6 -6 -2.6 -7.6 -4 c -7.2 -6.6 -15.8 -12.8 -17.6 -12.8 c -1 0 -2.4 -1.4 -3.2 -3 c -0.6 -1.6 -3.4 -4 -6.2 -5.4 c -2.6 -1.2 -5.4 -3.8 -6 -5.8 c -0.6 -2 -3.8 -4.8 -7 -6.2 c -3.2 -1.4 -7.4 -5.4 -9.4 -9 c -2 -3.6 -4.4 -6.6 -5.6 -6.6 c -3.2 0 -19.4 -18 -23.8 -26.6 c -2.2 -4 -5 -7.4 -6.6 -7.4 c -1.4 0 -2.6 -2.2 -2.6 -5 c 0 -2.8 -0.8 -5 -1.8 -5 c -1 0 -2.4 -2.6 -3.2 -6 c -0.8 -3.2 -2.2 -6.4 -3.2 -7 c -1 -0.8 -1.8 -3.6 -1.8 -6.6 c 0 -10.6 -2.2 -14 -11.2 -17.8 c -7 -2.8 -8.8 -4.6 -8.8 -8.4 c 0 -2.6 1.6 -6.2 3.6 -8 c 1.8 -1.8 4.6 -5.6 6 -8.8 c 1.2 -3 4.6 -6.4 7.4 -7.8 c 2.8 -1.2 5 -3 5 -4 c 0 -0.8 1.8 -1.6 4 -1.6 c 2.2 0 7.6 -2.2 12 -5 c 5.8 -3.6 10.6 -5 18 -5 c 6.4 0 10.4 -1 10.8 -2.4 c 4.6 -16.4 6.2 -19.6 9.4 -19.6 c 2 0 4.2 0.8 4.8 2 c 1.8 2.8 10.4 2.4 11.6 -0.4 c 0.8 -2 1.6 -2 3 0.2 c 1.6 2.2 4.6 2.4 13.6 1 c 6.6 -0.8 13.2 -1.6 14.8 -1.8 c 1.6 0 4.2 -0.8 5.6 -1.6 c 1.4 -1 2.4 -0.8 2.4 0.4 c 0 1.2 2.8 2.2 6 2.2 c 3.4 0 6 1 6 2 c 0 1.2 3.2 2 7.2 2 c 5.2 0 8.6 1.4 12 5 c 2.6 2.8 5.6 5 6.8 5 c 1 0 2 1 2 2 c 0 1.2 -1.4 2 -3 2 c -1.6 0 -3 1 -3 2 c 0 1.2 1.2 2 2.6 2 c 1.6 0 4.2 1.6 6 3.6 c 3.8 4 4.6 10.4 1.4 10.4 c -1 0 -2 1.4 -2 3 c 0 1.6 1 3 2 3 c 1.2 0 2 1.2 2 2.6 c 0 1.2 4 6.4 9 11.4 c 4.8 5 8.8 10.2 9 11.6 c 0 1.4 1.4 3 3.2 3.8 c 4 1.6 12.8 10.2 12.8 12.6 c 0 1.2 1 2 2 2 c 1.2 0 4.4 2.2 7.2 5 c 2.8 2.8 6.2 5 7.8 5 c 1.6 0 3 0.8 3 1.6 c 0 2.4 15.8 18.4 18.2 18.4 c 1 0 1.8 1 1.8 2 c 0 2.6 9 12 11.4 12 c 2.2 0 16.6 15.6 16.6 17.8 c 0 3.2 7 9.4 13.4 12 c 3.6 1.4 7 4.4 7.6 6.4 c 0.8 2 2.2 3.8 3.2 3.8 c 1 0 1.8 1 1.8 2.2 c 0 4 11.2 11.8 17 11.8 c 1.6 0 3 0.8 3 1.6 c 0 1 3.2 2.8 7 4.4 c 3.8 1.6 7 3.4 7 4.4 c 0 0.8 1.8 1.6 4 1.6 c 2.2 0 4 1 4 2 c 0 1.2 2.2 2 5 2 c 3.2 0 5 1.2 5 3 c 0 1.6 0.8 3 2 3 c 1.8 0 7 3.8 13 9.6 c 1.6 1.2 4.6 2.4 6.8 2.4 c 2.4 0 4.2 0.8 4.2 1.8 c 0 1 3.2 3.2 7 5 c 3.8 1.8 7 4.2 7 5.2 c 0 1.2 1.8 2 4 2 c 2.2 0 4 1 4 2 c 0 1.2 1.8 2 4 2 c 2.2 0 4 0.6 4 1.6 c 0 0.8 2 2.4 4.6 3.6 c 10.4 5 26.4 13.6 27.4 14.8 c 0.6 0.8 4 2.6 7.6 4.2 c 3.4 1.6 6.4 3.4 6.4 4.2 c 0 1 2.2 1.6 5 1.6 c 2.8 0 5 1 5 2 c 0 1.2 1.4 2 3 2 c 1.6 0 3 0.6 3 1.6 c 0 1.8 9.8 6.4 13.4 6.4 c 1.6 0 3.2 1.4 3.8 3 c 0.8 1.6 3.4 3 6 3 c 2.6 0 4.8 1 4.8 2 c 0 1.2 3 2 6.6 2 c 9 0 42 6.2 44.4 8.2 c 1 1 4.8 1.8 8.4 1.8 c 3.6 0 6.6 1 6.6 2 c 0 1.2 1.4 2 3 2 c 1.6 0 3 1.4 3 3 c 0 1.6 1 3 2 3 c 1.2 0 2 -1.2 2 -2.8 c 0 -2.6 0.8 -2.6 5.6 0 c 7 3.6 8.8 3.6 12.8 -0.6 c 5.2 -5.6 9.2 -8.6 11.4 -8.6 c 1 0 2.2 -0.8 2.6 -2 c 0.2 -1 6.2 -2.6 13 -3.2 c 7 -0.8 12.6 -2.2 12.6 -3 c 0 -1 1.4 -1.8 3 -1.8 c 1.6 0 3 -0.8 3 -2 c 0 -3.2 9.4 -2.2 10.8 1.2 c 1 2.6 2.2 2.6 9 -1.4 c 7.8 -4.4 7.8 -4.4 14.6 -0.4 c 4.2 2.4 7.2 6.2 8.6 10.6 c 1 3.8 2.6 8 3.2 9 c 0.6 1.2 2.4 6.2 4 11.6 l 2.6 9.4 l 10.4 0 c 6.6 0 10.8 1 11.4 2.6 c 0.8 1.8 1.2 1.8 1.2 0 c 0.2 -1.4 5.2 -3 12.4 -3.8 c 11.2 -1.2 12 -1.6 10.8 -5.6 c -2.2 -6.4 -2.6 -20 -0.8 -22.4 c 1 -1 2.2 -10.8 3 -21.4 c 0.8 -10.8 2.2 -20 3 -20.6 c 1 -0.6 1.8 -7.2 1.8 -15 c 0 -7.8 0.8 -13.8 2 -13.8 c 1.2 0 2 -4.4 2 -10 c 0 -5.4 0.8 -10 1.8 -10 c 0.8 0 2.2 -10.2 2.8 -22.4 c 0.6 -13 2 -22.8 3.2 -23.2 c 1.4 -0.4 2.2 -6.8 2.2 -15.4 c 0 -8.2 0.8 -15.2 1.8 -15.8 c 0.8 -0.6 2.2 -9.8 3 -20.6 c 0.8 -12.2 2.4 -20.6 4.2 -22.6 c 2.2 -2.4 2.6 -7.2 2 -19.6 c -0.4 -9 0 -16.8 1 -17.4 c 1.2 -0.8 2 -3.8 2 -7.2 c 0 -3.2 1 -5.8 2 -5.8 c 1.2 0 2 -3.2 2 -7 c 0 -3.8 1 -7 2 -7 c 1.2 0 2 -4 2 -9 c 0 -5 1 -9 2 -9 c 1.2 0 2 -1.6 2 -3.4 c 0 -1.8 0.8 -6 2 -9.4 c 1 -3.4 2.4 -8.6 3 -11.6 c 0.6 -3 2.4 -6.6 4 -8.4 c 1.6 -1.6 4 -7.8 5.4 -13.6 c 1.4 -5.8 3.6 -11.8 5 -13.2 c 1.4 -1.4 3.2 -4.8 3.8 -7.6 c 0.6 -2.6 2 -4.8 3 -4.8 c 1 0 1.8 -2.2 1.8 -4.8 c 0 -2.8 1 -5.6 2 -6.2 c 1.2 -0.6 2 -3 2 -5.2 c 0 -2 1 -3.8 2.2 -3.8 c 3.2 0 7.6 -6.2 7.8 -10.6 c 0 -3.8 3.2 -10 8 -15.4 c 5.6 -6.6 10 -12.8 10 -14.6 c 0 -0.8 1 -1 2 -0.4 c 1.2 0.6 2 -0.6 2 -2.8 c 0 -2.4 0.8 -4.2 1.6 -4.2 c 0.8 0 1.6 -1.8 1.8 -4 c 0.2 -2.2 1.8 -5.4 3.4 -7 c 1.6 -1.6 3.6 -5 4.4 -7.6 c 0.8 -2.4 3 -5.8 5 -7.6 c 2.2 -1.8 3.8 -5 3.8 -7 c 0 -3.4 6.2 -10.8 9 -10.8 c 2.6 0 13 -12.4 13 -15.4 c 0 -3.2 18.8 -22.6 21.8 -22.6 c 0.8 0 2.8 -2.4 4.4 -5.4 c 3.8 -7.6 7 -10.6 10.8 -10.6 c 2 0 5.2 -2.2 7.4 -5 c 2.2 -2.8 5.2 -5 6.8 -5 c 1.6 0 2.8 -0.8 2.8 -1.8 c 0 -1 3.8 -3.6 8.6 -6 c 4.6 -2.4 7.6 -4.2 6.6 -4.2 c -1.2 0 0 -1.8 2.4 -4 c 2.4 -2.2 5.6 -4 7 -4 c 1.6 0 4 -1.4 5.4 -3 c 1.4 -1.6 4 -3 6 -3 c 1.8 0 5.6 -2.2 8.2 -4.8 c 6 -5.8 12.4 -9.2 17.6 -9.2 c 2.4 0 4.2 -1.2 4.2 -2.8 c 0 -3.2 4.2 -5.2 11 -5.2 c 3 0 5.2 -1.4 6 -4 c 0.8 -2.8 2.4 -3.8 4.6 -3.2 c 1.8 0.6 6.2 -0.6 9.4 -2.8 c 3.4 -2.2 7.6 -4 9.6 -4 c 1.8 0 3.4 -0.8 3.4 -2 c 0 -1 1.4 -2 3.4 -2 c 6.4 0 24.6 -7 24.6 -9.4 c 0 -1.6 3 -2.6 7.8 -2.6 c 4.4 0 8.4 1 8.8 2.6 c 0.6 1.4 1.2 1 1.2 -1 c 0.2 -2 1.8 -3.6 3.8 -3.6 c 2 0 5.4 -1.6 7.6 -3.8 c 4 -3.6 16.8 -7.2 23.4 -6.4 c 1.8 0.2 3.4 -0.4 3.4 -1.4 c 0 -1 5.2 -3 11.6 -4.4 c 6.2 -1.4 13.6 -3.8 16 -5.4 c 2.6 -1.6 6.8 -2.4 9.4 -1.8 c 3.6 1 5 0.2 6 -2.6 c 1.4 -4.4 7.2 -6.8 15.4 -6.6 c 3.2 0 5.6 -0.6 5.6 -1.6 c 0 -0.8 4.8 -2.2 10.6 -3 c 5.6 -0.8 12.2 -2.8 14.4 -4.2 c 2.2 -1.6 6 -2.8 8.4 -2.8 c 2.6 0 4.6 -0.8 4.6 -2 c 0 -1 1.6 -2 3.6 -2 c 2 0 4.6 -1 5.6 -2 c 1.2 -1.2 6.8 -2.6 12.4 -3.4 c 5.8 -0.6 10.4 -2 10.4 -2.8 c 0 -1 1.8 -1.8 4 -1.8 c 2.2 0 4.6 -1.4 5.2 -3 c 0.8 -1.8 3.8 -3 7.8 -3 c 3.8 0 8.2 -1.4 10 -3.2 c 1.8 -2 5.2 -2.8 8 -2.2 c 3.4 0.6 5 0 5 -1.8 c 0 -2.2 2.6 -2.4 12 -1.4 c 8.4 0.8 12 0.4 12 -1.2 c 0 -1.2 2 -2.2 4.6 -2.2 c 2.6 0 6.4 -1.4 8.6 -3 c 2 -1.6 6.2 -3 9 -3 c 3 0 6.4 -1.4 7.8 -3 c 1.4 -1.6 5.4 -3 9.2 -3 c 3.6 0 7.2 -0.8 7.8 -2 c 0.6 -1 3 -2 5.2 -2 c 2 0 3.8 -0.8 3.8 -2 c 0 -1 2.4 -2 5.6 -2 c 7.6 0 14.6 -2.2 13.4 -4 c -0.6 -1 1 -2.2 3.4 -3 c 7.8 -2.2 18.4 -7.8 21.8 -11.4 c 1.8 -2 4.8 -3.6 6.6 -3.6 c 1.8 0 3.2 -1 3.2 -2.2 c 0 -2.8 5.2 -7.8 8 -7.8 c 1.2 0 1.6 -1 1 -2 c -0.6 -1.2 0.4 -2.6 2.4 -3.4 c 4.8 -1.8 7.8 -5 9.4 -10 c 0.8 -2.2 3 -6.2 5.2 -8.6 c 2.2 -2.6 4 -6.4 4 -8.8 c 0 -5.4 6.2 -21.2 8.2 -21.2 c 1 0 1.8 -4.4 1.8 -9.8 c 0 -5.6 0.8 -10.6 2 -11.2 c 1.2 -0.6 2 -5.4 2 -10.6 c 0 -5.2 1.4 -13 3 -17.4 c 1.6 -4.4 2.8 -11.6 3 -16 c 0 -4.6 0.8 -9 1.8 -10 c 1.2 -1.2 3 -10.6 4.4 -21 c 1.2 -10.4 3.2 -19.6 4.2 -20.2 c 1.2 -0.8 2.2 -5.2 2.2 -10 c -0.2 -4.8 0.6 -9.8 1.6 -11 c 0.8 -1 1.8 -7.6 2 -14.4 c 0.2 -7 1.2 -13 2.2 -13.6 c 1 -0.6 1.8 -6.8 1.8 -13.4 c 0 -6.8 0.6 -23.6 1.4 -37.4 c 0.8 -14.2 0.8 -25.6 -0.2 -26.2 c -1 -0.8 -0.8 -2 0.4 -2.6 c 2.4 -1.6 3.2 -28.4 1 -34 c -0.6 -1.8 -3.6 -3.2 -6.2 -3.2 c -5.4 0 -12.6 -6.6 -12.6 -11.4 c 0 -1.4 -1.4 -2.6 -3 -2.6 c -2 0 -3 -2 -3 -6.4 c -0.2 -3.6 -1.4 -8.8 -3 -11.6 c -3.2 -5.8 -4 -23.2 -1 -25 c 1.2 -0.6 2 -3 2 -5.2 c 0 -2 1.2 -3.8 2.6 -3.8 c 1.4 0 3.8 -3 5.2 -6.6 c 2.6 -6.6 4.8 -8.4 18.8 -14.6 c 4 -1.8 7.4 -4 7.4 -4.8 c 0 -0.8 2.8 -2 6 -2.6 c 3.4 -0.8 6 -2.6 6 -4 c 0 -1.6 2 -3.8 4.6 -5 c 14 -6.8 28 -12.4 32 -12.4 c 2.4 -0.2 6.6 -1.4 9.4 -3 c 2.8 -1.6 7 -2.8 9.6 -3 c 2.4 0 4.4 -0.8 4.4 -1.8 c 0 -1.2 4 -2.6 9 -3.4 c 5 -0.6 8.4 -2 8 -3 c -3.8 -5.8 40 -12.6 62.2 -9.6 c 6.6 1 22.2 1.6 34.8 1.6 c 14.8 -0.2 23.2 0.6 23.6 2 c 0.4 1.2 6 2.2 13.6 2.2 c 7.2 0 12.8 0.8 12.8 2 c 0 1.2 2.6 2 5.6 2 c 3.2 0 6.4 0.6 7.2 1.4 c 0.8 1 4 1.8 6.8 1.8 c 13.2 0.8 31.4 3.4 32.4 4.6 c 0.6 0.8 9 2.4 19 3.6 c 9.8 1.2 18.2 3.2 18.6 4.4 c 0.4 1.2 4.6 2.2 9.4 2.2 c 4.8 0 9.4 1 10 2 c 0.6 1.2 3.8 2 7 2 c 3.2 0 6.4 1 7.2 2.2 c 0.8 1.6 1.8 1.4 3 -0.4 c 1.4 -2.2 3.2 -2 9.6 1.6 c 4.4 2.6 9.2 4.6 10.8 4.6 c 1.6 0 5.2 1.8 8 4 c 2.8 2.2 6.4 4 8.2 4 c 1.8 0 3.2 1.2 3.2 2.6 c 0 1.6 2.2 4 5 5.4 c 2.8 1.4 5 3.6 5 4.6 c 0 1 1.4 0.8 3 -0.6 c 2.6 -2.2 3.8 -1.8 6.8 1.8 c 2 2.2 5.2 4.2 7 4.2 c 1.8 0 3.2 1 3.2 2 c 0 1.2 1.8 2 4 2 c 2.2 0 4 1 4 2 c 0 1.2 2.2 2 5 2 c 3 0 5 1.2 5 2.8 c 0 1.6 2 3.6 4.4 4.4 c 2.4 0.6 7.4 4.4 11.2 8 c 3.8 3.8 7.8 6.8 8.8 6.8 c 2.6 0 7.6 5.2 7.6 7.8 c 0 1.2 1.8 2.2 4 2.2 c 2.2 0 4 0.8 4 1.6 c 0 1 2.4 3 5.4 4.6 c 5.6 2.8 10.6 6.4 15.6 11.4 c 1.6 1.2 3.6 2.4 4.8 2.4 c 1.2 0 2.2 1.2 2.2 2.6 c 0 1.6 2.2 4 5 5.4 c 2.8 1.4 5 3.2 5 4 c 0 0.8 3.2 4.6 7 8.6 c 3.8 4 7 8.6 7 10.4 c 0 1.6 1.2 3 2.6 3 c 1.4 0 3.8 2 5.4 4.2 c 1.6 2.4 5.8 7.2 9 10.6 c 3.4 3.6 7.8 9.8 9.8 13.8 c 2.2 4 4.8 7.4 6 7.4 c 1.2 0 4 2.8 6.2 6 c 2.2 3.2 4.6 6 5.6 6 c 0.8 0 1.4 2.2 1.4 5 c 0 2.8 0.8 5 1.8 5 c 1 0 2.4 2.6 3.2 6 c 0.8 3.2 2.2 6 3.2 6 c 1 0 1.8 1.8 1.8 4 c 0 2.2 0.8 4 1.8 4 c 1 0 2.2 2.8 3 6 c 0.6 3.4 2 6 3.2 6 c 3.4 0 8 5.2 8 8.8 c 0 1.8 0.8 3.2 2 3.2 c 1 0 2.4 2.2 3.2 5 c 0.6 2.8 2 5 3 5 c 1 0 1.8 1.4 1.8 3 c 0 1.6 1 3 2 3 c 1.2 0 2 1.8 2 4 c 0 2.2 0.8 4 2 4 c 1 0 2.4 3.2 3.2 7 c 0.6 4 2.4 7 4 7 c 1.6 0 2.8 1.4 2.8 2.8 c 0 1.6 2.2 7.2 5 12.4 c 2.8 5.2 5 12.4 5 16.2 c 0 3.6 1.4 10 3 14 c 1.6 3.8 3 9.6 3 12.8 c 0 3.2 0.8 5.8 1.8 5.8 c 1 0 2.4 5 3.2 11 c 0.6 6 2 11.4 2.8 12 c 1 0.4 2.2 7.2 3 15 c 1.4 13.2 1.8 14 6.4 14 c 3.6 0 4.8 -1 4.8 -4.4 c 0 -2.8 2.4 -6.2 6 -8.6 c 3.2 -2.2 6 -4.8 6 -5.6 c 0 -2 9.4 -11.4 11.2 -11.4 c 1 0 6.8 -5.2 13 -11.4 c 6.4 -6.4 14.6 -14.2 18.6 -17.6 c 3.8 -3.2 7 -6.8 7.2 -8 c 0.2 -4.2 9.4 -12.6 15.4 -13.8 c 6.6 -1.6 18.6 -11.6 18.6 -15.8 c 0 -2.8 7 -9.4 10 -9.4 c 1.2 0 2 -0.8 2 -2 c 0 -1 1.8 -2 3.8 -2 c 4.4 0 16.2 -6.2 16.2 -8.4 c 0 -1 1.8 -1.6 4 -1.6 c 2.2 0 4 -0.8 4 -1.8 c 0 -1 1.8 -2.6 4 -3.2 c 2.2 -0.8 3.6 -2 3 -3 c -0.6 -1 1 -2.4 3.8 -3.2 c 2.6 -0.6 5.2 -2.8 5.8 -5 c 0.8 -2.6 2.8 -3.8 7 -3.8 c 3.4 0 7.4 -1.4 9.2 -3 c 1.6 -1.6 3.8 -3 5 -3 c 1.2 0 2.2 -0.8 2.2 -2 c 0 -1 2.6 -2 5.8 -2 c 3.4 0 6.4 -0.8 7 -1.8 c 0.6 -1 4.4 -2.4 8.2 -3 c 4.2 -0.8 7 -2.6 7 -4.2 c 0 -2 2.2 -3 6.6 -3 c 3.4 0 9 -1.4 12.2 -3 c 3 -1.6 8.2 -3 11.4 -3 c 3.2 0 5.8 -1 5.8 -2.2 c 0 -1 0.8 -1.6 1.8 -0.8 c 1 0.6 2.4 0.2 3.2 -1 c 0.6 -1 3 -2 5.2 -2 c 2 0 3.8 -0.8 3.8 -2 c 0 -1 2.4 -2 5.2 -2 c 2.8 0 6.4 -1.4 8 -3 c 1.8 -1.6 4.8 -3 7 -3 c 2 0 3.8 -0.8 3.8 -2 c 0 -1 2.8 -2 6 -2 c 3.8 0 6 -1 6 -2.8 c 0 -3.4 4.4 -5.2 13.2 -5.2 c 3.8 0 6.8 -0.8 6.8 -1.8 c 0 -1 3 -2.2 6.6 -2.8 c 8.4 -1.4 23.6 -5.4 27.4 -7.4 c 1.8 -0.8 9 -2.2 16 -3 c 7.2 -1 14.4 -1.8 16 -2 c 1.6 -0.2 5.6 -1.4 8.6 -2.8 c 3.2 -1.2 8.2 -2.2 11.4 -2.2 c 3.2 0 6.2 -0.8 6.8 -1.8 c 0.6 -0.8 5.8 -2.2 11.6 -3 c 5.8 -0.8 11.2 -2.6 12 -3.8 c 1 -1.6 2.2 -1.6 3.2 -0.4 c 2.4 3.2 6.4 3.2 6.4 0 c 0 -1.8 1.8 -3 4.8 -3 c 2.8 0 7.4 -1 10.6 -2.2 c 8 -3.2 22.2 -6.2 32 -6.6 c 4.6 0 9 -0.8 9.8 -1.6 c 0.8 -1 5.4 -1.6 10 -1.6 c 4.8 0 9 -0.8 9.6 -1.8 c 0.6 -0.8 5.8 -2.2 11.4 -3 c 5.6 -0.8 11.6 -2.2 13.4 -3.2 c 6.2 -3.4 29.2 -6.8 45.4 -6.6 c 8.8 0 16.6 -0.8 17.2 -1.6 c 0.6 -1 15.4 -2.2 33 -2.6 c 17.4 -0.4 33.4 -1.4 35.4 -2.2 c 1.8 -0.8 5 -0.8 7 0 c 1.8 1 9.2 2 16.4 2.2 c 7.2 0.4 19.8 1 28.2 1.4 c 8.4 0.6 16.4 1.4 17.6 2.2 c 1.2 0.8 3.4 0.8 4.8 -0.2 c 3.4 -2.2 23.4 -2.6 23.4 -0.4 c 0 2.6 7.6 2.2 8.4 -0.4 c 0.6 -1.8 2.8 -1.8 8.4 0.2 c 4.2 1.2 10.2 2 13.4 1.6 c 3.4 -0.6 6.4 -0.2 7 0.8 c 0.6 0.8 8.6 1.6 17.8 1.6 c 9.2 0 17.4 0.8 18 2 c 0.6 1 4.2 2 8 2 c 3.8 0 7 1.2 7.6 2.8 c 1 2.2 4.4 2.6 16.6 2 c 9.2 -0.6 16 -0.2 16.6 1 c 0.8 1.2 7.6 2.2 15.2 2.4 c 7.8 0.2 18 1.6 23 3.2 c 6 2 9.2 2.2 9.6 0.8 c 0.8 -2.6 11.8 -3 13.2 -0.4 c 0.6 1 8.4 2.4 17.2 3.2 c 8.8 0.8 16 2.2 16 3.2 c 0 1 4.4 1.8 9.8 1.8 c 6.2 0 10.6 1 12.2 3 c 1.6 2 6 3 12 3 c 5.4 0 10 1 10.4 2.2 c 0.4 1.2 7.4 2.4 17 2.8 c 9 0.2 17.4 1.2 18.6 2 c 1.4 0.8 7.6 1.8 13.8 2.4 c 6.2 0.4 12.6 1.2 14.2 2 c 1.6 0.6 5.2 1.6 8 1.8 c 2.8 0.4 8.8 1.2 13.6 2 c 5.4 0.6 8.4 2 8.4 4 c 0 2 2.6 2.8 9.8 2.8 c 6.2 0 10.2 1 10.8 2.6 c 0.6 1.8 1.4 1.8 4 -0.4 c 2 -1.4 3.4 -1.8 3.4 -0.6 c 0 1.2 4.8 2.4 10.6 3 c 5.6 0.6 16.2 2.4 23.4 4.4 c 16.2 4.2 39.6 7 62.6 7.2 c 13 0.2 17.4 1 17.4 3 c 0 1.8 3.6 2.6 12.6 2.8 c 6.8 0 21 0.6 31.4 1.2 c 28.4 1.6 38.2 1.2 41.8 -1.8 c 1.8 -1.6 6.6 -3.4 10.8 -4.2 c 4 -0.8 7.4 -2.4 7.4 -3.6 c 0 -3 6.2 -7.4 10.6 -7.6 c 2 0 5 -1.4 6.6 -3 c 1.8 -1.6 4.6 -3 6.6 -3 c 2 0 5.2 -1.8 7.2 -4 c 2 -2.2 6.6 -4.4 10.2 -5.2 c 3.8 -0.6 6.8 -2 6.8 -3 c 0 -1 1.4 -1.8 3 -1.8 c 1.6 0 3 -1.2 3 -2.8 c 0 -1.4 2.8 -3.8 6 -5.2 c 3.4 -1.4 6.8 -3.6 7.6 -4.8 c 0.8 -1.4 5 -4 9.4 -6.2 c 7.6 -3.6 17 -11.8 22.8 -20.6 c 1.6 -2.2 4.8 -4.6 7.2 -5.2 c 4.6 -1.2 19 -14.6 19 -17.8 c 0 -2.6 4.8 -6.8 9.6 -8.2 c 2.4 -0.8 4.4 -2.8 4.4 -4.6 c 0 -1.6 1.6 -3.4 3.6 -4 c 1.8 -0.4 5.6 -4 8.4 -7.6 c 2.8 -3.8 6.2 -7 7.6 -7 c 1.2 0 2.4 -1.2 2.4 -2.6 c 0 -1.4 2 -3.8 4.4 -5.4 c 2.4 -1.6 7.4 -6 11.4 -9.4 c 3.8 -3.6 8 -6.6 9.4 -6.6 c 2.6 0 10.8 -6.8 10.8 -9 c 0 -2 8 -9 10.2 -9 c 1 0 6.6 -2.2 12.6 -5 c 6 -2.8 12.4 -5 14 -5 c 1.8 0 3.2 -0.8 3.2 -2 c 0 -1 3 -2 6.6 -2 c 3.8 0 7.4 -0.6 8.2 -1.4 c 0.8 -0.8 5 -1.2 9.6 -0.8 c 5 0.4 8.8 -0.4 9.8 -2 c 3 -4.8 68 -1.2 78.2 4.4 c 2 1 5.4 1.8 7.6 1.8 c 4.2 0 24.2 18.4 26.6 24.6 c 0.6 1.8 2.2 3.4 3.4 3.4 c 3.4 0 8 5.2 8 9 c 0 1.8 2.2 6.2 5 9.8 c 2.8 3.8 5 9.2 5 12.8 c 0 3.6 0.8 6.4 1.8 6.4 c 1 0 2.2 4.6 3 10 c 0.8 5.6 2.2 10 3.2 10 c 1.2 0 2 3.6 2 8 c 0 5.8 1 8.4 4 10 c 2.6 1.4 4 4.2 4 8 c 0 3.4 0.8 6 2 6 c 1 0 2.4 5.4 3.2 12 c 0.8 6.6 2 12 2.8 12 c 1.8 0 8.6 35.6 7.2 37.8 c -0.6 1 -0.2 4.6 0.8 8 c 1 3.6 2 14.6 2.2 24.4 c 0.4 10 1.2 18.4 2.2 19 c 1 0.6 1 2.2 0.2 3.4 c -2 3.2 -0.8 34.2 1.4 35 c 0.8 0.4 1.2 4.2 0.6 8.6 c -1 6.4 -0.4 8.6 3.2 11.6 c 4.2 3.6 4.2 4.8 3 31 c -0.8 15 -2.2 27.2 -3.2 27.2 c -2.4 0 0.2 30 2.6 33.2 c 1 1.2 2.2 12 2.8 24 c 2.8 65.2 6.4 107.8 10 121.4 c 1 3.4 0.6 5.4 -0.8 5.4 c -1.2 0 -2.2 1.8 -2.2 4 c 0 2.2 0.8 4 1.8 4 c 1 0 1.8 4.8 1.8 10.6 c 0.2 20.6 2.6 33.4 6 33.4 c 2.4 0 2.8 0.4 0.8 1.6 c -1.8 1.2 -2.8 14 -3.6 47.6 c -0.6 25.2 -1.6 47.6 -2.2 49.8 c -1.8 6 -0.6 21 2 25.4 c 1.6 2.6 1.8 4.2 0.4 5.2 c -1.4 0.8 -2.2 13.2 -2 33.4 c 0 43 -2.8 101.4 -5.2 104.2 c -1.4 1.6 -1.2 2.8 0.6 3.2 c 2 0.8 2 1.8 -0.4 4.6 c -1.8 2 -2.2 4 -1 4.4 c 2.8 0.8 2 61.2 -0.8 62.2 c -3.8 1.2 -2.6 10.4 1.2 10.4 c 3 0 3.2 0.2 0.2 2.6 c -2.8 2 -3.6 8.2 -4.8 33.4 c -0.6 17 -2.2 32.2 -3.4 33.6 c -1.6 2 -1.4 3.2 0.4 4.4 c 1.8 1 2.2 3 1 6.2 c -3.4 10 -3.6 70.8 -0.2 76.6 c 1.6 3 2.4 19.4 2.4 54.4 c 0 37.2 0.6 51 2.6 53.2 c 1.8 2.2 2.2 10.6 1.4 32.8 c -0.6 16.4 -1.6 32.6 -2.2 36 c -0.4 3.4 0 8.6 1 11.4 c 1.2 3 1.4 5.6 0.6 6.2 c -2.2 1.2 -1.8 91.4 0.4 94.8 c 0.8 1.4 0.8 10.6 0 20.4 c -1 13.2 -0.6 18.8 1.2 21 c 1.4 1.6 1.8 4.6 1 6.4 c -0.8 2 -1.2 18.2 -1 36.2 c 0.2 21.6 -0.4 32.4 -1.8 32.4 c -1.2 0 -2.2 1 -2.2 2 c 0 1.2 1.4 2 3 2 c 4 0 3.8 8 -0.2 11 c -2.8 2 -2.8 2.6 -0.4 5.2 c 1.6 1.6 3.4 6.2 4.2 10.2 c 0.8 5.8 0.4 8 -2.2 9.6 c -3.2 1.8 -3.2 1.8 0.2 2 c 1.8 0 3.4 0.8 3.4 2 c 0 1 -1.6 2.6 -3.4 3.8 c -3.4 1.8 -3.4 2 0 3.2 c 4 1.6 4.6 5 0.6 5 c -3.4 0 -4.4 11.4 -6 66.4 c -0.8 21.8 -2.2 41.8 -3.2 44.6 c -1 2.6 -1.4 6.2 -0.8 7.8 c 0.6 1.6 0 5 -1.4 7.4 c -1.2 2.6 -2.2 10.6 -2 18.2 c 0.2 7.4 -0.4 13.6 -1.2 13.6 c -0.8 0 -1.8 4.2 -2.2 9.6 c -0.2 5.2 -1.4 9.8 -2.4 10 c -1.2 0.4 -2 3.2 -2 6.4 c 0 3.2 -1.4 7.2 -3.2 9 c -1.8 1.8 -3.6 8 -4.2 15.2 c -0.8 8.8 -2.2 12.8 -4.8 14.4 c -2.4 1.6 -3.8 4.6 -3.8 8.8 c 0 3.6 -0.8 6.6 -2 6.6 c -1 0 -2 1.4 -2 3 c 0 1.6 -1.4 3 -3 3 c -1.8 0 -3 1.8 -3 4.6 c 0 2.6 -1.8 6.6 -4 9 c -2.2 2.4 -4 6 -4 8 c 0 2 -1.8 5.6 -4 8 c -2.2 2.4 -4 5.6 -4 7.2 c 0 1.6 -0.8 3.6 -2 4.2 c -1 0.6 -2 3.6 -2 6.6 c 0 3.8 -2.2 6.8 -7 10.4 c -5 3.6 -7 6.6 -7 10.6 c 0 3 -0.8 5.4 -2 5.4 c -1 0 -2 1.6 -2 3.6 c 0 2 -1.8 4.8 -4 6.4 c -2.2 1.6 -4 4.4 -4 6.4 c 0 2 -0.8 3.6 -2 3.6 c -1 0 -2 1.8 -2 4 c 0 2.2 -0.8 4 -2 4 c -1 0 -3.4 3.2 -5.2 7 c -1.8 3.8 -4 7 -5 7 c -1 0 -1.8 1.4 -1.8 3 c 0 1.6 -2.6 5.8 -6 9.4 c -3.2 3.4 -6 7.4 -6 8.8 c 0 1.6 -0.8 2.8 -1.8 2.8 c -3.6 0 -24.2 22.6 -24.2 26.4 c 0 2 -2.2 4.8 -5 6 c -2.8 1.2 -5 3 -5 4 c 0 0.8 -2.6 4 -6 6.8 c -3.2 3 -6.8 8.4 -8 12 c -1.4 3.8 -3.2 6.8 -4.4 6.8 c -1.2 0 -4.6 2.4 -7.4 5.6 c -3 3 -7.2 6.8 -9.6 8.4 c -2.4 1.6 -4.6 4.4 -5 6 c -0.8 4 -3.6 6 -9 6 c -2.6 0 -4.6 1.2 -4.6 2.6 c 0 3 -15.2 16.6 -23.2 21 c -2.6 1.4 -4.8 4.2 -4.8 6.4 c 0 2.2 -0.8 4 -2 4 c -1 0 -4 2.2 -6.8 5 c -2.8 2.8 -6.8 5 -9.2 5 c -2.2 0 -4 0.8 -4 1.8 c 0 1 -1.8 2.4 -3.8 3.2 c -2.2 0.6 -4.6 3 -5.2 5.2 c -0.8 2 -3 3.8 -5.2 3.8 c -2 0 -3.8 1.2 -3.8 2.8 c 0 1.6 -2 3.2 -4.4 3.6 c -2.8 0.4 -4.8 2.2 -5.2 4.8 c -0.4 2.6 81.6 168.6 200.6 407 l 201.2 402.6 l -174.6 87.2 c -96 48 -184.2 91 -195.8 95.6 c -24.8 9.8 -62.6 20.4 -90.8 25.6 c -30.6 5.6 -96.8 5.2 -124.2 -0.8 c -52 -11.2 -93.4 -31.2 -133 -64.2 c -60.6 -50.2 -109.6 -136 -124 -217.4 c -5.4 -30.8 -5.8 -75.4 -1 -103.8 c 7.6 -43.2 28 -91.2 54.8 -129 c 17 -24 55.4 -62.6 81.4 -82 c 30.6 -23 55.4 -37 139.4 -79.2 l 77.6 -38.8 l -51 -102 c -45.2 -90.2 -51.6 -102 -55.6 -102 c -2.6 0 -5.6 1 -6.6 2 c -1.2 1.2 -6.8 2.6 -12.4 3.4 c -5.8 0.6 -10.4 2 -10.4 2.8 c 0 1 -1.8 1.8 -3.8 1.8 c -2.2 0 -4.4 0.8 -5.2 2 c -0.6 1 -2.4 1.4 -3.8 0.8 c -1.6 -0.6 -3.4 -0.2 -4.2 1 c -0.6 1.2 -4.4 2.2 -8.2 2.2 c -4.4 0 -6.8 1 -6.8 2.8 c 0 3.2 -6 5.2 -15.8 5.2 c -4.2 0 -8 1.4 -10.2 4 c -2.2 2.4 -7.2 4.6 -13.2 5.4 c -5.4 0.6 -10.2 1.8 -10.8 2.6 c -0.6 0.8 -3.6 2.2 -7 3.4 c -4.8 1.6 -8.2 6 -18.2 24 c -6.6 12.2 -12.2 23.4 -12.2 24.8 c 0 1.6 -44 82 -97.8 179 c -53.8 96.8 -162.6 293.2 -241.8 436.4 l -144 260.2 l -8 -0.2 c -4.4 0 -50.6 -5.6 -102.8 -12.4 z m 882.8 -228.2 c 26.8 -5.8 46.2 -13.8 115.4 -48.2 c 38.2 -19.2 69.6 -35.2 69.6 -35.6 c 0 -3.6 -134.2 -271.2 -136 -271.2 c -4.2 0 -137.2 67.8 -152.2 77.6 c -75.4 49.2 -94.4 121.4 -52.8 199.8 c 22 41.6 55.2 69.6 91.8 77.6 c 16.4 3.6 47.2 3.6 64.2 0 z m -755.2 -194.6 c 46.4 -86.2 84.2 -157.4 84.2 -158.4 c 0 -1.2 -1.4 -2 -3.2 -2 c -1.8 0 -59.6 -7.2 -128.4 -16 c -68.6 -9 -125.4 -15.8 -125.8 -15.2 c -0.6 0.4 18.6 79.6 42.2 175.8 c 23.8 96.2 43.2 175.6 43.2 176.6 c 0.2 2.4 -7.6 16.6 87.8 -160.8 z m -1273 -261.4 c 22.6 -72.4 40.6 -132.4 39.6 -133 c -2.4 -2.2 -164.6 -52 -180.4 -55.4 c -21 -4.6 -61 -4.6 -77.8 0 c -21.6 5.8 -38 15.2 -53.4 30.4 c -42 41.6 -57.6 117.6 -33.6 165.6 c 17.2 34.4 53.8 62.4 101.8 78.2 c 73.6 24.2 160.2 50.2 161.2 48.4 c 0.8 -1.2 20 -61.6 42.6 -134.2 z m 1465.2 -113.4 c 17 -31.2 32.6 -59.6 34.8 -63.2 l 3.8 -6.8 l -23.8 1.6 c -35.4 2.4 -125.2 1.4 -127 -1.4 c -0.8 -1.2 -2.4 -1.6 -3.8 -0.8 c -3.6 2.2 -32.8 1.2 -33.6 -1.2 c -0.6 -1.2 -6.8 -1.4 -17.6 -0.6 c -12 1 -16.8 0.8 -16.8 -1 c 0 -1.4 -3.8 -2.2 -10 -2.2 c -5.4 0 -10 -0.8 -10 -1.8 c 0 -4.2 -39.8 -7.4 -48.6 -3.8 c -4.6 1.8 -6.2 1.6 -7.4 -0.2 c -1 -1.8 -3.6 -2.2 -7.8 -1.2 c -3.4 0.6 -9.2 0.4 -12.6 -0.8 c -3.6 -1.2 -22.2 -2.6 -41.4 -3.2 c -19 -0.6 -36.2 -1.8 -38 -2.8 c -1.8 -0.8 -9.4 -2.2 -17.2 -2.8 c -8 -0.8 -14.8 -2.4 -16 -4 c -2.6 -3.4 -17 -3.6 -17 0 c 0 1.4 -0.8 2.6 -2 2.6 c -1 0 -2 -1.4 -2 -3 c 0 -1.8 -1.8 -3 -5 -3 c -3.4 0 -5 1 -5 3.6 c 0.2 3.8 25.2 104.2 26.4 105.4 c 0.8 1 352.4 46.6 360.8 46.8 c 6 0.2 6.6 -0.8 36.8 -56.2 z m -67 -137.6 c 7.8 -0.2 16.4 0.2 19.6 1 c 3.4 1 5.4 0.6 5.4 -0.8 c 0 -3 12.6 -2.8 15.6 0.2 c 2 2 2.8 2 4.2 0 c 1.2 -2 5.8 -2.4 18.8 -1.6 c 11 0.8 17.4 0.4 17.4 -0.8 c 0 -2.8 16.4 -2.6 23.4 0.2 c 8.8 3.6 27 4.6 28.8 1.4 c 1.8 -2.8 53.2 -5.6 59.8 -3.2 c 2.2 0.8 5 -0.2 7.8 -2.6 c 2.6 -2.6 5.8 -3.6 8 -2.8 c 2.2 0.6 4.4 0.2 5.2 -1 c 0.6 -1 4.8 -2 9.2 -2 c 5.2 0 7.8 -0.8 7.8 -2.8 c 0 -1.8 4 -3 13.2 -3.8 c 7.4 -0.6 14 -2 14.8 -3.4 c 0.8 -1.2 3.4 -1.8 6.2 -1 c 3 0.6 7.8 -0.4 12.8 -3 c 4.2 -2.2 11.2 -4 15.4 -4 c 4 0 8 -1 8.6 -2.2 c 0.8 -1.2 3.8 -1.4 7.2 -0.8 c 3.2 0.8 5.8 0.4 5.8 -0.6 c 0 -3.2 22.6 -9.2 34.6 -9.2 c 10.4 0.2 11.4 -0.2 11.4 -4.2 c 0 -3.8 1.4 -4.8 10.6 -6.2 c 5.6 -0.8 11.6 -1.6 12.8 -1.6 c 1.4 -0.2 4.2 -1.8 6.4 -3.6 c 4.8 -4 8 -4.8 13 -2.6 c 2 1 4.2 0.8 5 -0.4 c 0.6 -1.2 4.4 -2.8 8.2 -3.6 c 3.8 -0.8 7.6 -2.4 8.2 -3.2 c 1.8 -3 13.6 -5.8 14.8 -3.6 c 2.2 3.2 5 2 5 -2.2 c 0 -2.8 1.4 -4 4.6 -4 c 7.6 0 13.4 -2.4 13.4 -5.2 c 0 -3.6 9.2 -3.8 10.6 -0.2 c 0.6 1.2 1.2 0.4 1.2 -2.2 c 0.2 -2.4 1.8 -5 3.8 -5.6 c 1.8 -0.6 4.8 -1.8 6.4 -2.6 c 1.6 -0.8 8.6 -3.2 15.6 -5.2 c 6.8 -2 12.4 -4.4 12.4 -5.4 c 0 -0.8 2.2 -1.6 5 -1.6 c 2.8 0 5 -0.8 5 -1.8 c 0 -1 5 -2.4 11 -3.2 c 7.6 -0.8 11 -2.2 11 -4.2 c 0 -1.6 1.8 -2.8 4 -2.8 c 2.2 0 4.6 -1.4 5.2 -3 c 0.8 -1.6 3 -3 5 -3 c 2 0 3.8 -0.8 3.8 -1.8 c 0 -1 2 -2.2 4.6 -3 c 2.4 -0.6 6.4 -2.8 8.8 -5.2 c 2.4 -2.2 6.2 -4 8.6 -4 c 2.2 0 6.8 -2.6 10.4 -6 c 3.4 -3.2 7.6 -6 9.6 -6 c 1.8 0 5.2 -1.8 7.6 -4 c 2.4 -2.2 5.6 -4 7.4 -4 c 1.6 0 3 -0.8 3 -2 c 0 -1 2.2 -2.4 5 -3.2 c 2.8 -0.6 5 -2 5 -2.8 c 0 -0.8 2.2 -2.2 5 -2.8 c 2.6 -0.6 5.8 -3 7 -5.2 c 1.2 -2.2 3.4 -4 5 -4 c 1.6 0 3 -1.4 3 -3 c 0 -1.6 1.4 -3 3.2 -3 c 3 0 11 -5.6 22 -15.4 c 2.8 -2.6 5.4 -4.6 6 -4.6 c 1.8 0 6.8 -5.6 6.8 -7.8 c 0 -1 1.8 -2.6 4 -3.2 c 2.2 -0.6 4 -2.2 4 -3.2 c 0 -1 1.2 -1.8 2.8 -1.8 c 1.6 0 3.6 -1.8 4.2 -4 c 0.8 -2.2 4.6 -5.4 8.4 -7 c 7.2 -3 13 -8.8 11.4 -11.2 c -0.4 -0.8 1.4 -2 4.2 -2.6 c 3.2 -0.8 5 -2.6 5 -5.2 c 0 -2.2 1 -4 2 -4 c 2.8 0 12 -9.2 12 -12 c 0 -1 1 -2 2 -2 c 1.2 0 2 -1.4 2 -3 c 0 -1.6 1 -3 2 -3 c 1.2 0 2 -1.8 2 -4 c 0 -2.2 0.8 -4 1.8 -4 c 1 0 5.6 -3.6 10.2 -8 c 4.6 -4.4 9.2 -8 10.2 -8 c 1 0 1.8 -1.8 1.8 -4 c 0 -2 1.8 -4.8 4 -6 c 2.2 -1.2 4 -3.4 4 -4.8 c 0 -1.6 1.8 -3.2 4.2 -3.8 c 2.2 -0.6 4.6 -2.8 5.2 -5 c 0.6 -2.2 2.6 -4.4 4.8 -5 c 2.4 -0.6 3.8 -2.8 3.8 -5.8 c 0 -2.6 1.8 -6 4 -7.6 c 2.2 -1.6 4 -4 4 -5.4 c 0 -1.2 1.2 -3.2 2.6 -4 c 3.8 -2.4 7.4 -10 7.4 -15.6 c 0 -2.8 0.8 -5 1.8 -5 c 2.4 0 10.2 -13.4 10.2 -17.2 c 0 -3.6 4.8 -8.8 7.8 -8.8 c 1.2 0 2.2 -2.2 2.2 -4.8 c 0 -2.8 1 -5.6 2 -6.2 c 1.2 -0.6 2 -3.4 2 -6 c 0 -2.8 1.6 -5.8 3.8 -6.8 c 2 -1.2 5.8 -6.4 8.2 -11.6 c 2.4 -5.2 5.6 -10.4 7.2 -11.2 c 1.6 -0.8 2.8 -4.8 2.8 -8.4 c 0 -3.8 0.6 -7 1.6 -7 c 2 0 6.4 -10 6.4 -14.4 c 0 -2 1 -3.6 2 -3.6 c 1.2 0 2 -3 2 -6.8 c 0 -3.8 1 -7.6 2 -8.2 c 1.2 -0.8 1.6 -3.2 1 -5.2 c -0.8 -2.2 -0.4 -5 0.6 -6.4 c 2.8 -3.8 6.4 -20.2 6.4 -30.4 c 0 -5 0.8 -8.8 1.8 -8.2 c 1 0.6 2.2 -0.2 3 -1.8 c 1.2 -3.6 -0.4 -9 -3 -9 c -1 0 -1.8 -1.8 -1.8 -4 c 0 -2.2 1 -4 2 -4 c 1.2 0 2 -1.8 2 -4 c 0 -2.2 0.8 -4 2 -4 c 1 0 1.8 -2 1.8 -4.4 c -0.6 -10 2.6 -82.8 3.6 -84.2 c 1 -1.6 3.4 -98.8 2.6 -105.4 c -0.2 -1.6 -0.4 -19.2 -0.8 -39 c -0.6 -53.2 -3.2 -121.6 -5.4 -141 c -1 -9.4 -1.8 -22 -1.8 -28 c 0 -6.2 -1 -12.2 -2.2 -13.4 c -1.2 -1.2 -1.6 -3.4 -0.8 -4.8 c 1 -1.4 1.4 -15.4 1.2 -31.2 c -0.4 -21.4 0.2 -28.6 2 -28.6 c 1.8 0 2.2 -5.4 1.2 -22 c -0.6 -12 -0.2 -24.8 0.8 -28.4 c 1.2 -4.6 1 -6.8 -0.6 -7.8 c -1.8 -1.2 -1.8 -2.8 0.2 -6.6 c 2 -3.6 2.8 -16.4 2.8 -49 c 0.2 -24.4 1 -44.2 1.8 -44.2 c 0.8 0 1.6 -1.4 1.6 -3 c 0 -1.6 -0.6 -3 -1.4 -3 c -1 0 -1.6 -24 -1.4 -53.6 c 0 -31 -0.8 -54 -1.8 -54.6 c -1.2 -0.8 -1 -5.2 0.4 -11 c 2.6 -11.4 3 -27.6 1.2 -35.2 c -0.8 -3.4 -0.6 -5.6 0.6 -5.6 c 2.4 0 2.6 -10.2 0.2 -13.2 c -1 -1.2 -1 -8.2 -0.2 -15.6 c 1 -7.4 1.2 -16.8 0.6 -20.8 l -1.2 -7.4 l -20 -1.6 c -34 -2.6 -67 -2.2 -67 0.6 c 0 1.4 -12.8 3.8 -26.2 5 c -2.8 0.2 -6 0.8 -7 1.4 c -1 0.6 -7.8 1.8 -15.2 2.6 c -9.8 1 -13.6 2.2 -13.6 4.2 c 0 1.6 -2 2.8 -4.8 2.8 c -2.8 0 -5.4 0.8 -6.2 1.8 c -0.6 1.2 -5.4 2.6 -10.4 3.4 c -5.6 0.8 -11.4 3.2 -14.4 6 c -2.8 2.6 -6.8 4.8 -9 4.8 c -5.2 0 -9 5.8 -9.2 13.6 c 0 3.4 -0.8 6.4 -2 6.4 c -1 0 -2 1.8 -2 4 c 0 2.2 -0.8 4 -2 4 c -1 0 -2 3.6 -2 8 c 0 4.4 -0.8 8 -1.8 8 c -0.8 0 -2.4 7.2 -3 16 c -1.2 11.8 -2.2 16 -4.4 16 c -1.8 0 -2.8 2.2 -2.8 6.8 c 0 3.8 -1 7.2 -2.2 7.6 c -1.6 0.6 -1.6 9.8 0 34.6 c 2.2 37.6 5.8 59 9.4 59 c 2.6 0 4.8 6.2 4.8 13.6 c 0 2.4 1 4.4 2 4.4 c 1.2 0 2 1.2 2 2.8 c 0 1.4 1.4 3.8 3 5.2 c 1.6 1.4 3 4.6 3 7 c 0 2.6 0.8 5 1.8 5.4 c 1.8 0.6 2.8 5.6 2.4 12.2 c -0.2 2 -1.8 3.4 -4.2 3.4 c -2.2 0 -4 1.4 -4 3 c 0 1.8 -1.8 3 -5 3 c -2.8 0 -5 -0.8 -5 -2 c 0 -3.2 -5.4 -2.4 -6.8 1 c -1.4 3.8 -6.4 3.8 -8 0 c -0.6 -1.8 -3.6 -3 -7.2 -3 c -3.4 0 -9.4 -1.6 -13.6 -3.8 c -4 -2 -13.2 -4.4 -20.4 -5 c -7.2 -0.8 -13.6 -2.4 -14.2 -3.6 c -0.8 -1.2 -5.6 -2.2 -10.6 -2 c -5 0.2 -9.2 -0.4 -9.2 -1.6 c 0 -1.2 -5.2 -2 -12 -2 c -6.6 0 -12 -0.8 -12 -2 c 0 -1 -4 -2 -8.8 -2 c -4.8 0 -9.2 -1 -9.6 -2.2 c -0.4 -1.2 -5.4 -2.2 -11.6 -2.2 c -6.4 0.2 -11.6 -0.8 -12.4 -2.2 c -1.2 -1.8 -2.2 -1.6 -3.6 0.6 c -1.4 2 -2.4 2.4 -3.4 0.8 c -1.8 -2.4 -12.8 -5 -20.6 -5 c -8.8 0.4 -34 -4.2 -34 -6 c 0 -1 -4.4 -1.8 -9.8 -1.8 c -5.4 0 -10.2 -0.8 -10.6 -1.8 c -0.8 -2.2 -32 -3.4 -35.4 -1.4 c -1.2 0.8 -1.8 2.4 -1.2 3.4 c 0.8 1 -0.6 1.8 -2.8 1.8 c -2.4 0 -4.2 -0.8 -4.2 -2 c 0 -3 -15.2 -2.4 -17.8 0.8 c -1.2 1.4 -7.6 3.4 -14.2 4 c -6.6 0.8 -12 2.2 -12 3 c 0 1 -6 2.2 -13.2 3 c -7.2 0.8 -14.6 2.2 -16.4 3.2 c -1.8 1 -8.8 3.2 -15.4 5.2 c -14.6 4 -23 7.4 -23 9 c 0 0.8 -3.6 1.8 -7.8 2.6 c -4.2 0.6 -8.2 2.6 -9 4.2 c -0.6 1.8 -3.6 3 -7.2 3 c -3.6 0 -6.6 1.2 -7.2 3 c -0.8 1.8 -3.8 3 -7.6 3 c -6.6 0 -17.2 4 -17.2 6.4 c 0 0.6 -2.6 1.8 -6 2.6 c -3.2 0.8 -6.4 2.2 -7 3.2 c -0.8 1 -3 1.8 -5 1.8 c -2 0 -5.4 2.2 -7.4 4.6 c -2 2.6 -7.2 6.4 -11.6 8.4 c -4.4 2.2 -9.8 5.8 -12 8.4 c -2.4 2.6 -6.4 4.6 -9.6 4.6 c -3.4 0 -6.4 1.8 -8.6 5 c -1.8 2.8 -4.6 5 -6 5 c -1.6 0 -2.8 1.4 -2.8 3 c 0 1.6 -1.2 3 -2.6 3 c -1.6 0 -4 2.2 -5.4 5 c -1.4 2.8 -3.4 5 -4.4 5 c -3.4 0 -11.6 9.8 -11.6 14 c 0 2.6 -1.6 4.8 -3.8 5.4 c -2.2 0.6 -4.2 3 -4.6 5.4 c -0.4 2.4 -3.2 5.4 -7 7.2 c -3.6 1.6 -6.6 4.4 -6.6 6.2 c 0 1.8 -0.6 3.8 -1.4 4.6 c -0.8 0.6 -1.6 2.6 -1.8 4.2 c -0.6 4.6 -12.2 20.2 -17.6 23.8 c -2.8 1.8 -5.2 5 -5.2 7.2 c 0 2.2 -0.8 4 -2 4 c -1 0 -2 1.2 -2 2.8 c 0 1.6 -0.8 3.2 -1.6 3.6 c -3.4 1.4 -10.4 16.2 -10.4 21.8 c 0 3.8 -1 5.8 -3 5.8 c -1.6 0 -3 1.4 -3 3 c 0 1.6 -0.8 3 -2 3 c -1 0 -2 2.6 -2 5.6 c 0 3 -1.8 9 -4 13.4 c -2.2 4.4 -4 8.8 -4 10 c 0 1.2 -1.8 6 -4 10.6 c -2.2 4.4 -4 9.2 -4 10.4 c 0 1 -1.4 2 -3 2 c -1.6 0 -3 1.6 -3 3.6 c 0 2 -1.6 5.4 -3.8 7.6 c -3.2 3.6 -4.4 8.8 -7.4 31.8 c -0.4 2.2 -1.8 18.8 -3 36.8 c -2 24.6 -2 33.2 -0.2 33.8 c 1.2 0.4 2.8 7 3.6 14.6 c 0.8 7.6 2.2 13.8 3 13.8 c 1 0 1.8 5 1.8 11 c 0 8.2 -0.8 11 -3 11 c -1.4 0 -3.6 1.4 -4.6 3 c -1.2 2.6 -2.8 2.6 -8 0.8 c -5 -1.8 -6.4 -3.4 -6.4 -7.4 c 0 -3 -1.4 -8 -3 -11.2 c -1.6 -3 -3 -7 -3 -8.4 c 0 -1.6 -0.8 -2.8 -2 -2.8 c -1 0 -2 -2 -2 -4.6 c 0 -2.6 -1.4 -6.4 -3 -8.6 c -1.6 -2 -3 -6.2 -3 -9.2 c 0 -2.8 -0.8 -5.6 -2 -6 c -1 -0.2 -3 -14 -4.2 -30.4 c -1.6 -20.2 -3.2 -30.8 -5 -32.8 c -3.4 -3.4 -3.6 -13.8 -0.2 -14.8 c 1.6 -0.6 2.4 -5.4 2.4 -14.2 c 0.2 -7.2 0.8 -13.8 1.6 -14.6 c 0.8 -0.8 1.4 -4.4 1.4 -8 c 0 -3.6 1 -7.2 2 -7.8 c 1.2 -0.6 2 -3.4 2 -6.2 c 0 -2.8 1.8 -6.8 4 -9.2 c 2.6 -2.8 4 -7.2 4 -11.8 c 0 -4.2 1 -8.2 2 -8.8 c 1.2 -0.6 2 -4.8 2 -9.2 c 0 -4.2 0.8 -7.8 1.8 -7.8 c 1.8 0 10.2 -19 10.2 -23.2 c 0 -1.6 1 -2.8 2 -2.8 c 1.2 0 2 -2.4 2 -5.6 c 0 -6.8 10.2 -28.2 15.8 -32.8 c 2.4 -2 3.6 -4.8 3 -6.6 c -0.8 -1.6 -0.2 -3 1 -3 c 1.2 0 2.2 -1.2 2.2 -2.6 c 0 -1.4 1.8 -3.8 4 -5.4 c 2.2 -1.6 4 -3.8 4 -5 c 0 -1 1.8 -4.2 4 -7 c 2.2 -2.8 4 -7 4 -9.4 c 0 -2.6 1.2 -4.6 2.6 -4.6 c 3.2 -0.2 11.4 -7 11.4 -9.8 c 0 -1.2 1 -2.2 2 -2.2 c 1.2 0 2 -2.4 2 -5.4 c 0 -2.8 1.4 -6.6 3 -8.4 c 1.6 -1.8 4.6 -5.2 7 -7.6 c 2.2 -2.6 4 -6 4 -7.8 c 0 -1.8 1.6 -3.6 3.6 -4 c 1.8 -0.6 5.4 -4.2 8 -8 c 2.4 -3.6 5.8 -6.8 7.4 -6.8 c 1.6 0 3 -0.8 3 -2 c 0 -1 1.4 -2 3 -2 c 1.6 0 3 -1.2 3 -2.6 c 0 -1.4 1.8 -3.8 4.2 -5.4 c 2.2 -1.6 6.6 -5 9.4 -7.4 c 3 -2.4 7.8 -5 10.8 -5.6 c 3 -0.8 9.2 -4.8 13.6 -9.2 c 4.2 -4.2 9.2 -7.8 11 -7.8 c 1.8 0 5.4 -2.2 8.2 -5 c 2.8 -2.8 6.2 -5 7.6 -5 c 1.4 0 4.2 -1.8 6.2 -4 c 2 -2.2 5.4 -4 7.6 -4 c 5.2 0 15.4 -6.2 15.4 -9.4 c 0 -1.6 2.8 -2.6 7.6 -2.6 c 4.2 0 9.4 -1.4 11.6 -3 c 2 -1.6 5.8 -3 8.2 -3 c 2.4 0 5 -0.8 5.6 -2 c 0.6 -1 3.4 -2 5.8 -2 c 2.6 0 5.8 -1.4 7.2 -3 c 1.4 -1.6 4.6 -3 7.2 -3 c 2.4 0 5 -0.8 5.8 -1.8 c 0.6 -1.2 5.2 -2.6 10 -3.4 c 5 -0.6 9.6 -2 10.2 -3 c 0.6 -1 3.6 -1.8 7 -1.8 c 4.4 0 5.8 -1 5.8 -4 c 0 -4 4.4 -5.2 15.8 -4.2 c 2.6 0.2 5.4 -0.6 6.2 -1.8 c 0.8 -1.2 7 -2.8 13.6 -3.4 c 8.2 -0.8 13.4 -2.4 15.6 -4.8 c 2.6 -2.8 5 -3.4 11.8 -2.4 c 5.2 0.6 9 0.2 9.8 -1.2 c 1.8 -2.8 20.6 -3 22.2 -0.2 c 0.8 1.2 2.4 0.8 4.4 -1 c 3.4 -3.6 16.6 -3 58.6 2.4 c 6 0.6 13.2 1.6 16 1.8 c 9.4 0.8 17 3.4 18.6 6 c 0.8 1.6 3.4 2.8 5.4 2.8 c 2.2 0 4 1 4 2 c 0 1.2 2.2 2 5 2 c 2.8 0 5 -1 5 -2.2 c 0 -2.8 22.8 -0.6 23.6 2.2 c 1 2.6 7.8 2.6 9.6 -0.2 c 0.8 -1.6 1.8 -1.6 3.4 0 c 1.2 1.2 3.8 2.2 5.8 2.2 c 2 0 3.6 1 3.6 2 c 0 1.2 3.8 1.8 8.6 1.8 c 4.6 -0.2 10.6 0.6 13 2 c 3.2 1.6 5.6 1.8 8.4 0.2 c 4.2 -2.2 14 -0.8 14 2.2 c 0 1 2.4 0.8 5.4 -0.4 c 3.8 -1.4 5.8 -1.4 6.2 0 c 0.4 1.2 2 2.2 3.6 2.2 c 1.6 0 2.8 1.4 2.8 3 c 0 2 2.2 3 7 3 l 7 0 l 0 -9.8 c 0 -5.4 -1 -10.2 -2.2 -10.6 c -5.6 -1.8 -7.2 -111 -1.6 -116.4 c 1 -1.2 1.8 -5.4 1.8 -9.6 c 0 -9.8 5.8 -34 8.8 -36.6 c 3.2 -3 7.2 -10.4 7.2 -13.6 c 0 -1.4 1.8 -3.8 4 -5.4 c 2.2 -1.6 4 -3.6 4 -4.6 c 0 -2.8 9.2 -10.8 14.2 -12.4 c 2.6 -0.8 6.2 -3 7.8 -4.8 c 5.4 -6 13.8 -10.2 20 -10.2 c 3.8 0 6 -1 6 -2.8 c 0 -2.6 17.2 -9.2 23.8 -9.2 c 1.2 0 2.2 -0.8 2.2 -1.8 c 0 -1 6.4 -2.4 14 -3.2 c 7.8 -0.8 14 -2.2 14 -3.2 c 0 -1 6.8 -1.4 15.4 -1 c 13 0.6 15.8 0.2 18.4 -2.8 c 4.2 -4.8 30 -7.8 32.4 -3.8 c 1.2 2 3.2 2 9.2 0.2 c 10.8 -3.2 28.2 -4.6 29.6 -2.2 c 1.4 2.2 33 2.4 36 0.2 c 2.8 -2 3.6 -22.4 1 -22.4 c -2.2 0 -2.8 -12.6 -0.8 -14.6 c 2.2 -2.2 0.8 -34.2 -1.6 -35.6 c -1.2 -0.8 -1 -3.2 1 -7 c 3.4 -7 4.4 -24.8 1.2 -24.8 c -1.4 0 -1.8 -4.6 -1 -14 c 0.8 -8.8 0.4 -14 -0.8 -14 c -1 0 -2 -3.6 -2 -8 c 0 -4.4 -1 -8 -2 -8 c -2.6 0 -1.2 -26.2 1.8 -31.6 c 1.2 -2.2 1.2 -4.8 0 -6.6 c -1 -1.4 -1.8 -5.4 -1.8 -8.4 c 0 -3.2 -1.4 -7 -3.2 -8.8 c -2.2 -2.2 -2.4 -3.8 -1 -5.2 c 2.8 -2.8 2.8 -17.4 0.2 -17.4 c -1.2 0 -1 -2.2 0.6 -5.4 c 1.6 -3.6 1.6 -5.6 0.2 -6 c -1.4 -0.4 -1.8 -6.8 -1.2 -17.6 c 0.6 -11.8 0.2 -17 -1.4 -17 c -1.2 0 -2.2 -1.8 -2.2 -3.8 c 0 -2.2 -1.4 -5.2 -3 -7 c -3.4 -3.2 -4.2 -8.2 -1 -6.2 c 1 0.6 1.8 -4 1.8 -12 c -0.2 -10.8 -0.8 -13.4 -4 -15.2 c -3 -1.4 -3.6 -3.2 -2.6 -6.4 c 0.8 -2.4 2.2 -4.6 3 -5 c 3 -1.2 2 -8.4 -1.2 -8.4 c -2 0 -3 -2.2 -3 -7 c 0 -3.8 1 -7 2 -7 c 1.2 0 2 -1.4 2 -3 c 0 -1.6 -0.8 -3 -1.6 -3 c -1 0 -3.4 -1.8 -5.8 -3.8 c -4.4 -4.2 -18.6 -6.2 -44 -6.4 c -14.6 -0.2 -46.6 5.8 -46.6 8.6 c 0 0.8 -1.8 1.6 -4 1.6 c -2.2 0 -4 0.8 -4 1.8 c 0 1 -3.6 2.4 -8 3.2 c -6.2 1 -8 2.2 -8 5.4 c 0 2.2 -1.6 4.4 -3.8 5 c -2.2 0.6 -4.4 2.2 -5 3.8 c -0.6 1.6 -2.2 2.8 -3.6 2.8 c -1.6 0 -4 1.8 -5.6 4 c -1.6 2.2 -3.8 4 -5 4 c -1 0.2 -4.2 4.6 -6.8 10 c -2.6 5.6 -5.6 10 -6.4 10 c -0.8 0 -3.4 4.2 -6 9.6 c -2.6 5.2 -5.6 10.4 -6.8 11.4 c -4.4 3.8 -13 21.6 -14.2 29.2 c -0.8 4.4 -1.8 7.8 -2.6 7.8 c -0.8 0 -3 3.2 -5 7 c -2.2 3.8 -4.6 7 -5.8 7 c -1 0 -5.2 3.6 -9.4 8 c -4.2 4.4 -9 8 -10.8 8 c -1.8 0 -3.2 1 -3.2 2 c 0 1.2 -1.2 2 -2.6 2 c -1.6 0 -4 2.2 -5.4 5 c -1.4 2.8 -4.4 5 -6.4 5 c -2 0 -3.6 1 -3.6 2.2 c 0 3.8 -8.2 9.8 -13.4 9.8 c -5 0 -10.6 4.2 -10.6 7.8 c 0 1.2 -1.8 2.2 -4 2.2 c -2.2 0 -4 1 -4 2 c 0 1.2 -2 2 -4.4 2 c -6 0 -19.4 6.6 -19.6 9.6 c 0 1.4 -2.8 2.4 -7.4 2.4 c -4.2 0 -9.4 1.4 -11.4 3 c -2.2 1.6 -7.8 3 -12.4 3 c -4.8 0 -9 0.8 -9.8 1.8 c -1 2 -13.4 4.4 -24.6 5 c -3 0.2 -6.6 1 -8 2 c -1.4 0.8 -8.2 2 -15 2.6 c -6.8 0.6 -12.8 2 -13.4 2.8 c -1.4 2 -22.8 6 -38 7.2 c -6 0.4 -33.4 1 -61 1.4 c -27.4 0.2 -62.8 1.2 -78.4 2 c -21 1 -28.6 0.8 -28.6 -0.8 c 0 -1.4 -1.6 -1.8 -4 -1 c -6.4 2 -44 1.4 -46.6 -0.6 c -1.4 -1 -8.4 -1.6 -15.8 -1.2 c -7.6 0.2 -13.6 -0.2 -13.6 -1 c 0 -0.8 -3 -1.4 -6.4 -1.4 c -3.6 0 -17.4 -0.6 -30.6 -1.4 c -17.4 -1.2 -24.6 -2.4 -26.2 -4.4 c -1.2 -1.6 -5 -3 -8.6 -3 c -3.4 0 -6.2 -0.8 -6.2 -2 c 0 -1 -3.6 -2 -8 -2 c -4.6 0 -14.2 -1.4 -21.6 -3 c -7.4 -1.8 -17.2 -4 -22 -5 c -4.6 -1.2 -12 -2 -16.4 -2 c -4.2 0 -8.4 -1 -9 -2 c -0.6 -1 -4 -2 -7.2 -2 c -3.4 0 -7.4 -1.2 -9 -2.8 c -1.6 -1.6 -9.2 -3.4 -17.8 -4.2 c -8.2 -0.8 -15 -2.2 -15 -3 c 0 -0.8 -12.4 -2 -27.4 -2.6 c -15.4 -0.8 -27.8 -2.4 -28.2 -3.4 c -0.4 -1.2 -2.4 -2 -4.6 -2 c -2.4 0 -4.2 -1.8 -5 -5 c -0.6 -2.8 -2 -5 -3 -5 c -1 0 -1.8 -2.8 -1.8 -6.2 c 0 -6.6 3.8 -11.8 8.6 -11.8 c 1.8 0 3.4 -0.8 3.8 -2 c 0.8 -2.2 5.2 -2.4 25.2 -0.8 c 9.8 0.8 14.4 0.6 14.4 -1 c 0 -1.4 1.6 -1.6 4.8 -0.2 c 2.6 1 5.4 1.2 6 0.4 c 2 -2 43.4 -0.4 47.6 1.8 c 2 1 6.8 1.4 10.6 0.6 c 7.2 -1.2 33 2.8 33 5.4 c 0 0.8 8.8 1.4 19.6 1.4 c 23.4 0.2 47 2.2 48.4 4.6 c 0.6 0.8 21.2 2.2 46 2.8 c 24.6 0.6 45.8 2 47.2 3 c 1.2 1.2 2.8 1.4 3.4 0.8 c 0.8 -0.8 7.6 -1.2 15.2 -1 c 7.8 0.2 14.4 -0.6 15.2 -1.8 c 1.4 -2.2 11 -2.8 11 -0.4 c 0 2 34.4 0.4 37.2 -1.8 c 1.2 -1 5.4 -1.2 9.4 -0.8 c 4 0.6 9.6 0 12.6 -1 c 3.6 -1.4 7.6 -1.4 13 0.2 c 5.2 1.6 8.6 1.8 10.2 0.4 c 1.4 -1.2 7.8 -1.8 14.2 -1.4 c 6.2 0.2 11.4 -0.2 11.4 -0.8 c 0 -0.8 9 -1.2 20 -0.8 c 11 0.4 20 -0.2 20 -1 c 0 -0.8 5.2 -1.8 11.6 -2 c 21.6 -1 34.2 -3 36.6 -5.8 c 1.2 -1.6 4.2 -2.8 6.4 -2.8 c 2.2 0 5 -1.2 6.2 -2.8 c 1.2 -1.6 7.8 -3.4 15.2 -4.2 c 7.2 -0.8 14 -2.2 15 -3 c 1.2 -0.8 6.8 -2.2 12.4 -3 c 5.8 -0.8 11.2 -2.2 11.8 -3.2 c 0.6 -1.2 2.2 -1 4 0.4 c 2 1.6 2.8 1.6 2.8 0 c 0 -1.2 1.4 -2.2 3 -2.2 c 1.6 0 3 -0.8 3 -1.8 c 0 -1 4.2 -3.4 9.6 -5.4 c 5.2 -2 9.8 -4.2 10.4 -4.8 c 0.6 -0.8 2.6 -1.8 4.6 -2.6 c 2 -0.8 3.2 -2.2 2.4 -3.4 c -0.6 -1 1.2 -2.4 4 -3.2 c 2.8 -0.6 5 -2 5 -3 c 0 -1 1 -1.8 2 -1.8 c 1.2 0 4.6 -2.2 7.6 -5 c 3 -2.8 6.6 -5 8 -5 c 3.6 0 7.6 -4.2 9.2 -9.4 c 0.8 -2.4 3 -4.8 5 -5.6 c 4.8 -1.4 14.6 -20.4 13.2 -25.2 c -0.8 -2.2 -0.4 -3.8 0.8 -3.8 c 1.2 0 2.2 -2 2.2 -4.6 c 0 -2.6 3 -7.6 7 -11.4 c 3.8 -3.8 7 -8.4 7 -10.4 c 0 -2 1 -3.6 2 -3.6 c 1.2 0 2 -1.4 2 -3.2 c 0 -1.6 1.2 -4.2 2.6 -5.6 c 1.2 -1.4 4.2 -5 6.4 -7.8 c 2.2 -3 4.6 -5.4 5.4 -5.4 c 1 0 3.4 -1.8 5.6 -4 c 2.2 -2.2 3.4 -4 2.8 -4 c -0.6 0 0.6 -2.6 2.6 -6 c 1.8 -3.2 4.6 -6 6.2 -6 c 3.2 0 8.4 -4.8 8.4 -7.8 c 0 -1.2 1.8 -2.2 4.2 -2.2 c 4 0 9.8 -4.2 9.8 -7.4 c 0 -2 11.4 -8.6 15.2 -8.6 c 1.6 0 2.8 -0.8 2.8 -1.8 c 0 -1 3.4 -2.4 7.8 -3.2 c 4.2 -0.6 9.4 -2.8 11.6 -4.8 c 2 -2 7.8 -4.2 12.6 -5 c 4.8 -0.8 9.4 -2.2 10 -3.4 c 0.8 -1 5 -2 9.8 -2.4 c 4.6 -0.2 9.2 -1.8 10.2 -3.4 c 2.2 -3.6 40 -5.8 40 -2.2 c 0 3.2 16 2.8 16.2 -0.2 c 0 -2 0.4 -2 1.2 0 c 1.2 2.8 24 3.4 28.4 0.6 c 2.4 -1.6 2.4 -2.4 0.4 -5 c -1.4 -1.6 -2 -4 -1.2 -5.4 c 0.8 -1.2 0.2 -3 -1.2 -4 c -2.4 -1.4 -2.4 -2.4 -0.2 -5.8 c 1.8 -3 2 -6 0.6 -11.6 c -1.2 -4 -2.2 -9.2 -2.2 -11.4 c 0 -2.2 -0.8 -13 -1.8 -24 c -1 -11 -1.8 -22.4 -2 -25.4 c -0.2 -3.6 -1.4 -5.6 -3.2 -5.6 c -2.2 0 -3 -2.4 -3 -9.4 c 0 -5.4 -1.4 -12.2 -3 -15.4 c -1.6 -3 -3 -7 -3 -8.4 c 0 -1.6 -0.8 -2.8 -1.8 -2.8 c -0.8 0 -2.2 -5 -2.8 -11.2 c -0.6 -6 -2 -12.2 -3 -13.4 c -1 -1.4 -2.6 -7.2 -3.4 -12.8 c -0.8 -5.8 -2.2 -10.6 -3.2 -10.6 c -1 0 -1.8 -1.4 -1.8 -3.2 c 0 -3.6 -4.6 -8.8 -7.8 -8.8 c -1.2 0 -2.2 -1.4 -2.2 -3 c 0 -4.4 -6.8 -7 -18.8 -7 c -6.8 0 -11.2 -0.8 -11.2 -2.2 c 0 -2.6 -38.6 -0.2 -39.6 2.4 c -0.4 1 -3.8 2.2 -7.6 3 c -5.4 1 -6.8 2.2 -6.8 6 c 0 3.2 -1.2 4.8 -3.4 4.8 c -3.2 0 -6.6 2.2 -18 12 c -1.4 1 -3 2 -3.8 2 c -1.8 0 -10.8 10.6 -10.8 12.6 c 0 2.4 -11.8 13.4 -14.2 13.4 c -2.2 0 -17.8 15 -17.8 17 c 0 2.6 -20.4 21 -23.4 21 c -3.4 0 -8.6 4.8 -8.6 8.2 c 0 3 -7.8 9.8 -11.4 9.8 c -1.6 0 -6 3.4 -10.2 7.8 c -4.2 4.4 -10.2 8.4 -13.8 9.2 c -3.6 0.6 -6.6 2.2 -6.6 3.4 c 0 2.8 -4 6 -12.6 10.4 c -4 2.2 -7.4 4.6 -7.4 5.6 c 0 0.8 -2.2 1.6 -5 1.6 c -2.8 0 -5 0.6 -5 1.6 c 0 0.8 -5 3.6 -11 6.2 c -6 2.8 -11 5.6 -11 6.6 c 0 0.8 -1 1.6 -2.2 1.6 c -1.2 0 -3.4 1.4 -5 3 c -1.8 1.6 -4.8 3 -7 3 c -2 0 -3.8 0.8 -3.8 1.8 c 0 1 -5.4 3.4 -12 5.4 c -6.6 2.2 -12 4.4 -12 5.2 c 0 0.8 -4.4 2 -10 2.8 c -5.4 0.8 -10 2 -10 2.8 c 0 2 -58.6 4.2 -60 2.2 c -0.6 -1 -15 -2.4 -32 -3.2 c -17 -0.8 -32.2 -2.4 -33.4 -3.4 c -1.4 -1.2 -5.6 -1.4 -9.2 -0.8 c -4.2 0.8 -13.4 -0.4 -23.6 -2.8 c -9.2 -2.2 -18.8 -4 -21.4 -4 c -2.6 0 -6 -1.4 -7.6 -3 c -1.8 -1.6 -5.4 -3 -8 -3 c -2.8 0 -7 -1 -9.2 -2.2 c -2.2 -1.2 -11.8 -2.6 -21.4 -3.2 c -9.4 -0.6 -17.4 -1.8 -17.8 -2.8 c -0.4 -1 -3.6 -1.8 -7.2 -1.8 c -3.6 0 -7.2 -0.6 -7.8 -1.4 c -1.6 -1.6 -5.2 -2 -25.4 -3.8 c -8.2 -0.6 -16.4 -2.4 -18 -3.8 c -1.8 -1.4 -9.6 -3 -18.8 -3.4 c -10.2 -0.4 -16.2 -1.6 -16.8 -3.2 c -0.4 -1.4 -4.2 -2.4 -8.4 -2.4 c -4.2 0 -8 -1 -8.4 -2.2 c -0.6 -1.8 -2 -1.6 -5.6 0.2 c -3.6 1.8 -5 2 -5.6 0.2 c -0.4 -1.2 -4.2 -2.2 -8.6 -2.2 c -4.4 0 -11 -1.4 -15 -3 c -4 -1.6 -14.8 -3 -25.8 -3.4 c -14.8 -0.4 -19 -1 -19 -3.2 c 0 -2 -1.6 -2.6 -5.4 -1.8 c -6.2 1.2 -25.6 -1.8 -31 -4.8 c -2.2 -1 -3.8 -1 -4.6 0.2 c -1.8 2.8 -10.4 2.4 -11.8 -0.4 c -1 -2 -1.4 -2.2 -2.4 0 c -1.4 3 -8 3.2 -10 0.2 c -0.8 -1.4 -4.2 -1.8 -8 -1.2 c -3.8 0.6 -6.8 0.4 -6.8 -0.8 c 0 -1 -4 -1.8 -9 -1.8 c -5 0 -9 -0.8 -9 -2 c 0 -1 -4 -2 -8.8 -2 c -5 0 -9.4 -0.8 -10 -1.8 c -0.6 -0.8 -7.4 -1.2 -15.2 -0.6 c -12 0.8 -14 0.4 -14 -2.4 c 0 -4 -3.2 -4.2 -4.8 -0.2 c -1.4 3.8 -7.2 3.8 -7.2 0 c 0 -3.2 -1.8 -3.8 -6.8 -1.8 c -1.8 0.6 -2.6 2 -2 3 c 0.6 1 -0.8 1.8 -3 1.8 c -2.4 0 -4.2 -1.2 -4.2 -2.4 c 0 -2 -12.4 -2.8 -54.6 -3 c -29.8 -0.4 -56.4 -1.2 -58.8 -1.8 c -2.6 -0.8 -4.6 -0.4 -4.6 0.8 c 0 1.2 -9.6 1.8 -26 1.6 c -14.2 -0.4 -26 0.2 -26 1 c 0 0.8 -3.4 2 -7.4 2.8 c -4.2 0.8 -8.6 2.2 -10 3.4 c -1.4 1 -3.2 1.6 -4 1 c -3.2 -1.8 -25 2.4 -27.2 5.2 c -2.2 3 -16.2 5.2 -30.8 5.2 c -3.4 0 -6.8 1 -7.4 2 c -0.6 1 -6.6 2.4 -13.2 3.2 c -6.6 0.8 -12 2.2 -12 3.2 c 0 1 -3.2 1.8 -7.2 1.8 c -3.8 0 -8.8 1 -10.8 2 c -2.2 1.2 -11.6 2.8 -21 3.8 c -9.6 1 -18.4 2.8 -19.6 4 c -1.2 1.2 -7.2 2.2 -13.4 2.2 c -6.2 0 -12.2 1 -13.4 2.2 c -1 1 -7.2 2.6 -13.4 3.2 c -7 0.8 -11.2 2 -11.2 3.6 c 0 1.6 -4 3.2 -10 4 c -5.4 0.8 -10.4 2.2 -11.2 3.2 c -0.6 1 -3.8 1.8 -7 1.8 c -3.4 0 -7.4 1.4 -9 3 c -1.8 1.6 -5.2 3 -7.8 3 c -2.6 0 -5 1.2 -5.6 2.6 c -0.6 1.8 -1.4 1.8 -4 -0.2 c -3.4 -2.8 -3.6 -2.8 -12.4 5 c -1.4 1.4 -4.6 2.6 -6.8 2.6 c -2.4 0 -4.2 1 -4.2 2 c 0 1.2 -2.2 2 -4.8 2 c -2.8 0 -6.2 1.2 -7.6 2.8 c -1.6 1.4 -5.8 3.4 -9.6 4.2 c -3.8 0.8 -8.2 2.2 -10 3 c -7.6 3.6 -17.8 6.6 -25.4 7.4 c -4.8 0.6 -8.6 1.8 -8.6 2.8 c 0 1 -1.6 1.8 -3.6 1.8 c -2 0 -5.4 1.4 -7.6 3 c -2 1.6 -7 3 -11 3 c -4 0 -8.4 1.4 -9.8 3 c -1.4 1.6 -3.8 3 -5.2 3 c -1.6 0 -2.8 1.2 -2.8 2.8 c 0 1.6 -4 4.4 -9 6.4 c -5 1.8 -9 4.2 -9 5 c 0 1 -1.2 1.8 -2.6 1.8 c -1.4 0 -3.8 1.8 -5.4 4 c -1.6 2.2 -5 4 -7.8 4 c -5.6 0 -17.8 7 -22.6 13.2 c -2 2.4 -6.4 5.4 -10 7 c -7 2.8 -8 3.6 -17.8 12.4 c -3.4 3 -7.2 5.4 -8.2 5.4 c -1.2 0 -4 2 -6.4 4.6 c -5 5.4 -18.2 15.4 -20.6 15.4 c -2 0 -11 7.4 -20.6 16.8 c -3.8 3.8 -9.2 7.4 -11.8 8.2 c -5.8 1.8 -12.2 7.2 -12.2 10.2 c 0 1.4 -1 2.8 -2 3.2 c -3 1 -5 21 -2.4 24 c 1 1.4 2.6 11.6 3.4 22.6 c 0.8 11 2.2 20.4 3.2 21 c 2.8 1.8 4.8 36 2 36 c -1.2 0 -2.2 1.4 -2.2 3 c 0 1.8 -1.8 3 -5 3 c -2.8 0 -5 1 -5 2 c 0 1.2 -2 2 -4.6 2 c -4.6 0 -13.4 -8 -13.4 -12 c 0 -1.2 -0.8 -3.6 -1.8 -5.6 c -5.4 -10 -8.2 -17.6 -8.2 -22.8 c 0 -3.2 -1.8 -7.2 -4 -9 c -2.8 -2.4 -4 -6 -4 -11.6 c -0.2 -4.4 -1.4 -11.6 -3 -16 c -1.6 -4.4 -3 -11.4 -3 -15.4 c 0 -4.2 -0.8 -7.6 -1.6 -7.6 c -2.2 0 -6.2 -15.6 -8.4 -32.4 c -1 -7.4 -2.6 -15.2 -3.8 -17.4 c -1.2 -2.2 -2.2 -6.6 -2.2 -10 c 0 -3.2 -0.8 -6.2 -2 -6.6 c -1 -0.2 -2.6 -6.8 -3.6 -14.6 c -1 -8.4 -2.4 -13.8 -3.8 -13.6 c -1.2 0.2 -2.8 -3.6 -3.6 -8.4 c -0.6 -5 -2 -9 -3.2 -9 c -1 0 -1.8 -2.8 -1.8 -6.2 c 0 -3.4 -1.4 -7.4 -3 -9 c -1.6 -1.8 -3 -5.2 -3 -7.6 c 0 -5 -5 -16.4 -8.2 -18.2 c -1 -0.8 -1.8 -2.6 -1.8 -4.2 c 0 -3.4 -4.6 -8.8 -7.6 -8.8 c -1.2 0 -2.6 -2.8 -3.4 -6 c -0.8 -3.4 -2 -6 -2.6 -6 c -0.8 0 -3.2 -3.8 -5.4 -8.2 c -2.2 -4.6 -5.4 -9.4 -7.4 -10.6 c -2 -1.2 -3.6 -4.6 -3.6 -7.8 c 0 -3.4 -2.2 -8 -5.4 -11.4 c -9.2 -9.6 -10.6 -11.6 -10.6 -15 c 0 -1.8 -1.2 -3.6 -2.8 -4.2 c -1.6 -0.6 -3.8 -3.6 -5.2 -6.8 c -1.4 -3.2 -3.6 -6.2 -5.2 -6.8 c -1.6 -0.6 -3.8 -3.4 -4.8 -6.2 c -1 -2.8 -3.2 -5 -4.6 -5 c -1.6 0 -6 -3.8 -9.6 -8.4 c -3.8 -4.6 -8.8 -10.2 -11.2 -12.4 c -2.6 -2.2 -4.6 -5.2 -4.6 -6.6 c 0 -1.4 -1.6 -2.6 -3.6 -2.6 c -2 0 -4.8 -1.8 -6.4 -4 c -1.6 -2.2 -4.2 -4 -6 -4 c -1.8 0 -4.4 -1.8 -6 -4 c -1.6 -2.2 -4 -4 -5.4 -4 c -1.4 0 -2.6 -0.8 -2.6 -2 c 0 -1 -1.4 -2 -3 -2 c -1.6 0 -3 -1 -3 -2.2 c 0 -2.4 -5 -7.8 -7.4 -7.8 c -1 0 -3 -1.8 -4.6 -4 c -1.6 -2.2 -4.4 -4 -6.2 -4 c -1.8 0 -3.8 -1.4 -4.6 -3 c -0.6 -1.6 -2.4 -2.4 -3.8 -1.8 c -2.8 1 -9.4 -4 -9.4 -7 c 0 -2.2 -18.6 -10.2 -23.6 -10.2 c -2 0 -5.4 -1.8 -7.4 -4 c -2 -2.2 -4.8 -4 -6.4 -4 c -1.4 0 -2.6 -0.8 -2.6 -1.8 c 0 -1 -2.2 -2.4 -5 -3 c -2.8 -0.8 -5 -2.2 -5 -3.2 c 0 -1.2 -3 -2 -6.8 -2 c -3.8 0 -7.2 -1 -7.6 -2.2 c -0.4 -1.4 -5.4 -2.2 -12.2 -2 c -6.2 0 -11.4 -0.8 -11.4 -1.8 c 0 -1.2 -2.2 -2 -4.8 -2 c -2.6 0 -5.4 -1.2 -5.8 -2.4 c -0.8 -2 -1.4 -2 -2.8 -0.2 c -1.4 2 -3.6 2 -9.6 0.4 c -7.4 -2 -15.6 -3.4 -27.6 -4.6 c -3 -0.4 -6 -1.2 -6.8 -1.8 c -0.6 -0.8 -4 -1.4 -7.2 -1.4 c -3.2 0 -7 -1.4 -8.4 -3.2 c -1.6 -2.4 -6.6 -3.6 -16.6 -4.4 l -14.2 -1 l 1.2 26.4 c 1 23.6 0.8 26.2 -2 26.2 c -2.6 0 -3.4 2 -3.4 9.6 c -0.2 5.2 -1.4 13 -3 17.4 c -1.6 4.4 -3 10 -3 12.2 c 0 2.4 -1.6 6.4 -3.6 9 c -2 2.6 -4.4 6.4 -5 8.4 c -0.8 2.2 -3.2 4.2 -5.4 4.8 c -2.6 0.6 -4 2.8 -4 5.8 c 0 2.6 -0.8 4.8 -2 4.8 c -1 0 -2 1.6 -2 3.6 c 0 1.8 -1.8 5.6 -4 8.4 c -2.2 2.8 -4 5.8 -4 6.8 c 0 0.8 -2.2 3.4 -5 5.6 c -2.8 2.2 -5 5 -5 6.2 c 0 1.4 -2.8 4.2 -6 6.4 c -3.2 2.2 -6 4.6 -6 5.6 c 0 2.4 -14.6 15.4 -17.4 15.4 c -1.4 0 -2.6 1 -2.6 2.2 c 0 3 -5.2 7.8 -8.6 7.8 c -1.6 0 -5.4 2.2 -8.6 5 c -3.2 2.8 -7 5 -8.2 5 c -1.4 0 -2.6 1 -2.6 2 c 0 1.2 -1.6 2 -3.6 2 c -2 0 -5.2 1.2 -7.4 2.8 c -2.2 1.4 -10.6 3.4 -18.4 4.2 c -10.4 1 -14.6 2.2 -14.6 4.2 c 0 1.8 -2.4 2.8 -7 2.8 c -4.8 0 -7 -1 -7 -3 c 0 -5 -9.2 -3.8 -11 1.4 c -2.8 8.6 -6.8 36.6 -5.8 40.8 c 0.6 2.4 0.2 5 -1 5.6 c -1.2 0.8 -2.2 5 -2.2 9.4 c 0 4.2 -0.8 7.8 -2 7.8 c -1 0 -2.4 2 -2.8 4.6 c -0.6 2.4 -2.6 12.8 -4.6 23 c -1.8 10 -4.2 18.4 -5 18.4 c -0.8 0 -1.6 4.4 -1.6 9.6 c 0 5.4 -0.6 10.4 -1.4 11.2 c -0.8 0.6 -1.4 2.8 -1.6 4.8 c -2.4 26 -3.6 32.4 -6.2 32.4 c -1.6 0 -2.8 1.2 -2.8 2.8 c 0 1.4 -1.4 5.2 -3 8.4 c -1.6 3.2 -3.4 9.6 -4.2 14.4 c -1 7 -3.6 11 -12.8 20.6 c -6.2 6.4 -12 11.8 -12.8 11.8 c -2 0 -7.2 5.4 -7.2 7.2 c 0 3 -6.8 8.8 -10.4 8.8 c -2 0 -3.6 0.8 -3.6 1.8 c 0 1 -5 4.2 -11 7.2 c -6 3.2 -11 6.4 -11 7.4 c 0 0.8 -1.8 1.6 -4 1.6 c -2.2 0 -4.6 1.4 -5.2 3 c -0.8 1.6 -2.2 3 -3.4 3 c -2 0 -6.6 1.6 -28.4 10 c -9.8 3.8 -12.2 4.6 -17 5.4 c -2.8 0.4 -7.6 2.2 -10.8 3.8 c -3.2 1.6 -8.6 2.8 -12 2.8 c -3.4 0 -8 1.4 -10 3 c -2.2 1.6 -6.4 3 -9.6 3 c -3.6 0 -5.6 1 -5.6 3 c 0 2 -2 3 -6.2 3 c -3.4 0 -8.6 1.4 -11.4 2.8 c -3 1.6 -10.6 3.6 -16.8 4.2 c -6.4 0.8 -12 2.2 -12.6 3.2 c -0.8 1 -3 1.8 -5.2 1.8 c -2 0 -3.8 1 -3.8 2 c 0 1.2 -3.4 2 -7.4 2 c -4.2 0 -10.2 1.4 -13.4 3 c -3 1.6 -7.6 3 -10 3 c -2.4 0 -6.2 1.4 -8.4 3 c -2 1.6 -5.2 3 -7 3 c -1.8 0 -4 1.4 -4.6 3.2 c -0.6 1.6 -2 2.6 -2.8 2 c -1 -0.6 -4.4 0.4 -7.6 2 c -3.2 1.8 -8.2 2.6 -11.2 2 c -3.2 -0.6 -5.6 -0.2 -5.6 0.8 c 0 2 -12 5.6 -23.6 7.2 c -4 0.4 -7.6 1.8 -8 2.8 c -0.4 1.2 -4.2 2 -8.4 2 c -4.2 0 -8.6 1.2 -10 3 c -1.4 1.6 -4.2 3 -6.2 3 c -2.2 0 -3.8 1 -3.8 2 c 0 1.2 -2.2 1.6 -5 0.8 c -5.8 -1.4 -16.2 2.2 -17.8 6.4 c -0.6 1.6 -3 2.8 -5.2 2.8 c -2.2 0 -4 1 -4 2 c 0 1.2 -1.6 1 -4.2 -0.4 c -3.4 -2.2 -4.4 -2 -6 1 c -1.2 1.8 -3.8 3.4 -6 3.4 c -2 0 -5.4 0.8 -7.4 1.8 c -4.8 2.6 -23.4 8.2 -27.2 8.2 c -1.8 0 -3.2 0.6 -3.2 1.6 c 0 0.8 -4.4 3 -10 5 c -5.8 2 -10 4.8 -10 6.4 c 0 1.6 -1.4 3 -3 3 c -1.6 0 -6.8 2.2 -11.8 5 c -5 2.8 -10.4 5 -12.2 5 c -3 0 -5 1.2 -12 7.4 c -1.4 1.4 -4.6 2.6 -6.8 2.6 c -2.4 0 -4.2 1 -4.2 2 c 0 1.2 -1 2 -2.2 2 c -1.2 0 -5.4 3.6 -9.6 8 c -4 4.4 -9.2 8 -11.4 8 c -2.2 0 -7 3.8 -10.8 8.2 c -9 10.8 -11.2 13 -23.6 23.6 c -5.8 5 -10.4 10.4 -10.4 12.2 c 0 3 -8.4 12 -11.2 12 c -2.2 0 -6.8 5.8 -6.8 8.8 c 0 1.8 -0.8 3.2 -1.6 3.2 c -0.8 0 -3 2.4 -4.8 5.6 c -4.8 7.8 -10.8 14.4 -13.4 14.4 c -1.2 0 -2.2 1.4 -2.2 3 c 0 1.6 -0.8 4.6 -1.8 6.6 c -1 1.8 -3 6.2 -4.4 9.4 c -1.6 3.4 -6.6 9.8 -11.4 14.4 c -4.6 4.8 -8.4 9.8 -8.4 11.4 c 0 1.6 -0.8 3.6 -2 4.2 c -1 0.6 -2 2.8 -2 5 c 0 4.4 -8 20 -10.4 20 c -0.8 0 -1.6 3.2 -1.6 7 c 0 3.8 -0.8 7 -2 7 c -1 0 -2 1.8 -2 4 c 0 2.2 -1.2 4 -2.6 4 c -2.8 0 -7.4 10.8 -7.4 17.6 c 0 2.2 -2 7.4 -4.2 11.4 c -2.4 3.8 -3.8 8.8 -3.2 11 c 0.6 2.2 0.2 4.6 -0.8 5.2 c -1 0.6 -1.8 3.6 -1.8 7 c 0 3.2 -0.8 5.8 -2 5.8 c -1 0 -2 1.8 -2 4 c 0 2 -1.2 4.6 -2.8 5.4 c -2.6 1.4 -3.4 5.6 -6.4 30.2 c -0.6 5.2 -1.6 10.8 -2 12.4 c -0.6 1.6 -1.4 9.4 -1.8 17 c -0.4 7.8 -1.6 20.4 -2.8 28 c -1 7.8 -3 21.6 -4.2 30.8 c -1.2 9.4 -3.4 17.8 -5 19 c -1.6 1.4 -3 8.4 -3.8 18.2 c -1 16.2 -2 22.4 -4.4 30.6 c -0.6 2.4 -0.4 4.4 0.8 4.4 c 2.4 0 5.2 27.2 3 30.4 c -2.4 4 -2.4 14.4 0 17.2 c 1.6 2 1.4 3.2 -0.4 4.2 c -3.2 2 -3.6 33 -0.6 50.2 c 1.4 7.2 2.4 16.4 2.4 20.6 c 0 4 0.8 9 2 11 c 3.2 6 7.8 17.2 8.4 21.4 c 0.4 2.2 1.6 3.8 2.6 3.4 c 2.4 -0.8 4.6 6 4.8 15.2 c 0.2 3.4 1.2 6.4 2.2 6.4 c 1.2 0 2 1.6 2 3.8 c 0 2 2.2 7.8 5 13 c 2.8 5.2 5 10.8 5 12.4 c 0 1.4 0.8 2.8 1.8 2.8 c 1 0 2.4 2.6 3.2 6 c 0.8 3.2 2.2 6.4 3.2 7 c 1 0.8 1.8 3.4 1.8 6.2 c 0 2.8 1.2 4.8 3 4.8 c 1.6 0 3.4 2.2 4.2 5 c 0.6 2.8 2 5 3 5 c 1 0 1.8 1.4 1.8 3.2 c 0 1.6 1.2 4.2 2.6 5.6 c 6 6.4 10.6 12.8 14.4 19.8 c 2.2 4 4.8 7.4 6 7.4 c 1.2 0 3.4 1.8 5 4 c 1.6 2.2 4 4 5.2 4 c 1.4 0 4.2 3.2 6.6 7 c 2.2 3.8 5 7 6.2 7 c 1 0 2 1.2 2 2.6 c 0 3.4 9 11.4 12.8 11.4 c 1.8 0 3.2 1.6 3.2 4 c 0 2.4 1 5.4 2.2 6.8 c 8 9.6 13.6 15.2 15.2 15.2 c 1 0 3.2 2.2 4.6 5 c 1.4 2.8 3.6 5 4.8 5 c 1.2 0 4.4 2.8 7.2 6.2 c 2.6 3.6 8.6 8 13.2 10 c 4.8 2 9.6 5.4 10.8 7.6 c 1.2 2.4 4 4.2 6 4.2 c 2.4 0 4 1.4 4 3.2 c 0 4.4 10.4 12.8 16.2 12.8 c 3 0 7 4.4 8.6 9.6 c 0.8 2.6 3.2 4.4 5.4 4.4 c 2 0 3.8 1 3.8 2 c 0 1.2 2.2 2 4.8 2 c 3.2 0 5.4 1.4 6.2 4 c 0.6 2.2 2.4 4 3.8 4 c 4.4 0 13.2 5 13.2 7.6 c 0 1.2 1.6 2.4 3.6 2.4 c 2 0 4.8 1.8 6.4 4 c 1.6 2.2 5 4 7.4 4 c 2.6 0 4.6 1 4.6 2 c 0 1.2 1.8 2 4 2 c 2.2 0 4 1 4 2 c 0 1.2 2.2 2 5 2 c 3.6 0 5.2 1.4 6.2 5 c 1.4 5.4 4.8 6.8 4.8 2 c 0 -4.8 3.6 -3.4 4.4 1.6 c 0.4 2.8 2.2 4.6 5.2 5 c 2.4 0.4 4.4 1.6 4.4 2.6 c 0 1 2 1.8 4.6 1.8 c 2.4 0 5.8 1.8 7.4 4 c 1.6 2.2 4.4 4 6.2 4 c 1.8 0 6.6 3.2 10.6 7 c 4.2 3.8 9.4 7 11.8 7 c 2.4 0 6.6 1.8 9.4 4 c 2.8 2.2 6.4 4 8 4 c 1.8 0 6.4 1.8 10.6 3.8 c 4 2 8 3 8.4 2 c 0.6 -0.8 4 0 7.6 1.8 c 3.6 2 8.6 3.8 11.2 4 c 2.6 0 5.4 1.2 6 2.2 c 0.8 1.2 4.6 3.4 8.6 5 c 4 1.8 8 4.2 8.6 5.4 c 0.8 1.2 3.6 1.6 6.2 1 c 2.6 -0.8 4.8 -0.6 4.8 0.4 c 0 1 3.2 2.8 7 4.4 c 3.8 1.6 7 3.6 7 4.4 c 0 1 2 1.6 4.6 1.4 c 9.8 -0.8 15.4 0.2 15.4 3.2 c 0 1.6 1.8 3 4 3 c 2.2 0 4 1 4 2 c 0 1.2 4 2 8.8 2 c 5 0 9.6 1 10.4 2.2 c 0.6 1.2 3.8 1.8 7 1 c 3 -0.6 6.2 -0.2 6.8 0.8 c 0.6 1.2 5.2 2 10 2 c 4.8 0 9.4 1 10 2 c 0.6 1.2 6 2 12 2 c 6 0 11.4 1 12 2 c 0.6 1.2 6 2 12 2 c 5.8 0 11 0.8 11.4 1.8 c 0.2 1 7.6 2.2 16.4 2.4 c 14.4 0.4 24.6 2.6 30.6 6.4 c 1.2 0.8 2.8 0.6 3.6 -0.6 c 1.4 -2.4 17.4 -0.4 19.2 2.4 c 0.6 1 7.4 2.2 15 2.6 c 18.4 1 18.6 1.2 27.2 3.6 c 5.4 1.4 8.2 1.4 10.2 -0.4 c 2.2 -1.6 4.4 -1.8 8.2 -0.2 c 3 1 7.6 2 10.4 2 c 3 0 4.8 1.2 4.8 3 c 0 4.2 6 3.8 6 -0.4 c 0.2 -3.4 0.2 -3.4 2.8 0 c 1.4 1.8 4 3.4 5.8 3.4 c 1.6 0 3.4 1 3.8 2 c 0.4 1.2 6.4 2.4 13.4 2.8 c 7 0.6 13.6 1.8 14.8 3 c 1.2 1.2 7 2.2 12.8 2.2 c 5.8 0 10.6 1 10.6 2 c 0 1.2 1.4 2 3 2 c 1.6 0 3 1 3 2 c 0 2.8 5.4 2.4 6.6 -0.4 c 0.6 -2 1.8 -2 5.2 0 c 2.2 1.2 6 2.4 8.2 2.4 c 2.2 0 4 1.4 4 3 c 0 1.8 1.8 3 4.6 3 c 2.6 0 5.6 1 6.8 2.2 c 1.2 1.2 8.8 2.6 17 3.2 c 8 0.4 15 1.6 15.2 2.8 c 0.4 1 3.8 1.8 7.6 1.8 c 3.8 0 6.8 1 6.8 2.2 c 0 1.6 1 1.4 3.2 -0.4 c 1.8 -1.6 3.6 -1.8 4.4 -0.6 c 0.8 1 6.4 3.2 12.4 4.6 c 6 1.6 12.2 4 13.6 5.6 c 1.6 1.6 4.6 2.2 6.8 1.6 c 2 -0.8 4.8 -0.6 6.2 0.4 c 1.4 1 6.2 3 11 4.6 c 4.6 1.4 8.4 3.4 8.4 4.4 c 0 0.8 4 1.6 8.8 1.6 c 5 0 9.4 0.8 10 1.8 c 0.6 0.8 6.6 2.8 13.2 4.4 c 6.6 1.4 12 3.2 12 4.2 c 0 3.4 16.6 5.6 41.4 5.6 c 15.6 0 26.8 0.8 27.6 2 c 0.8 1.2 2 1.6 3 1 c 1 -0.6 2.2 -0.2 2.8 0.8 c 0.8 1.4 14.2 1.6 14.2 0.4 c 0 -0.2 24.4 -0.8 54 -1.2 c 55.8 -0.8 77 -2.2 77 -5.2 c 0 -2.4 7.4 -2.2 12.2 0.2 c 3 1.8 4.2 1.4 5 -1 c 0.8 -2 4 -3 9.6 -3 c 4.4 0 11.8 -1.4 16.2 -3 c 4.4 -1.6 11.2 -2.8 15.2 -3 c 4 0 8.4 -1.4 9.8 -3 c 1.4 -1.6 3.6 -3 5 -3 c 1.4 0 3 -1.4 3.8 -3 c 0.6 -1.6 3.2 -3 6 -3 c 2.8 0 5.6 -1 6.4 -2.2 c 0.6 -1.2 3 -1.8 5 -1.2 c 4 1 18.4 -1.6 24.8 -4.4 c 8.2 -3.8 19 -6.4 21 -5.2 c 1.2 0.8 3.8 -0.6 5.8 -2.8 c 2 -2.4 5.2 -4.2 7.2 -4.2 c 5.6 0 18.8 -6.6 19 -9.4 c 0 -1.6 2.6 -2.6 5.8 -2.6 c 3.2 0 7.2 -1.4 9 -3 c 1.6 -1.6 3.8 -3 5 -3 c 1.2 0 2.2 -0.8 2.2 -1.8 c 0 -1 4 -2.4 9 -3 c 5 -0.8 9 -2.2 9 -3.4 c 0 -1 2.2 -1.8 5 -1.8 c 2.8 0 5 -0.8 5 -2 c 0 -1 1.8 -2 4 -2 c 2.2 0 4 -0.8 4 -1.8 c 0 -1 1.8 -2.6 4 -3.2 c 2.2 -0.6 4 -2.6 4 -4.2 c 0 -1.6 1.2 -2.8 2.6 -2.8 c 1.4 0 3.8 -1.8 5.4 -3.8 c 1.4 -2.2 3.4 -3.6 4.2 -3.2 c 0.6 0.6 4 -1.6 7.2 -4.8 c 3.2 -3 8.4 -6.2 11.2 -7 c 3 -0.6 5.4 -2.2 5.4 -3.2 c 0 -1.2 1.4 -2 3 -2 c 1.6 0 3 -1.4 3 -3 c 0 -1.6 1.2 -3 2.8 -3 c 1.6 0 4.8 -2.6 7.4 -6 c 2.6 -3.2 6.4 -6 8.4 -6 c 1.8 0 3.4 -1.2 3.4 -2.8 c 0 -1.6 2.2 -3.4 5 -4 c 3.4 -0.8 5 -2.6 5 -5.4 c 0 -4 10.6 -15.8 14 -15.8 c 1 0 2.4 -1.8 3 -4 c 0.8 -2.6 3 -4 6.4 -4 c 3.6 0 5.6 -1.6 7.2 -6 c 1.4 -3.6 3.8 -6 5.8 -6 c 2 0 3.6 -1.2 3.6 -2.6 c 0 -1.4 3.8 -4.2 8.6 -6.4 c 7.4 -3.6 8.4 -4.8 9 -11.4 c 0.4 -4.2 1.4 -7.6 2.2 -7.6 c 2.8 0 12.2 -9 12.2 -11.6 c 0 -1.4 1 -2.4 2 -2.4 c 1.2 0 2 -1.2 2 -2.6 c 0 -1.6 2.2 -4 4.8 -5.4 c 2.8 -1.4 5.2 -4.4 5.6 -6.8 c 0.4 -2.4 2.6 -5 5 -6.2 c 2.4 -1 4.8 -4.2 5.4 -7.2 c 0.6 -3 2.6 -5.8 5 -6.4 c 2.6 -0.6 4.2 -2.6 4.2 -5 c 0 -2.2 0.6 -4.4 1.6 -4.8 c 2.2 -1 12.4 -20.8 12.4 -24.4 c 0 -1.8 1 -3.2 2 -3.2 c 1.2 0 2 -0.8 2 -2 c 0 -1 1.8 -3.8 4 -6 c 2.2 -2.2 4 -5.8 4 -7.8 c 0 -2.2 1 -4.6 2 -5.2 c 1.2 -0.6 2 -4.2 2 -7.8 c 0 -3.4 0.8 -7.2 1.6 -8.2 c 1 -1.2 2.8 -6 4.2 -11 c 1.6 -5 3.4 -11.6 4.4 -14.8 c 1 -3.2 1.8 -12 1.8 -19.4 c 0 -8.6 0.8 -13.8 2.2 -13.8 c 3.6 0 0.6 -36.4 -3.2 -38.4 c -2 -1.2 -3 -4.8 -3 -10.4 c 0 -4.8 -1.4 -11.4 -3 -14.4 c -1.6 -3.2 -3 -8.2 -3 -11.2 c 0 -3 -0.8 -6 -2 -6.6 c -1 -0.6 -2 -3.8 -2 -6.8 c 0 -3 -1.4 -7.2 -3 -9.4 c -1.6 -2 -3 -6.2 -3 -9 c 0 -5.6 -8.6 -15.8 -13.2 -15.8 c -1.6 0 -2.8 -1.4 -2.8 -3.2 c 0 -1.8 -1.6 -3.6 -3.8 -4.2 c -2 -0.4 -4.8 -3.2 -6 -5.8 c -1.2 -2.6 -3.4 -4.8 -5.2 -4.8 c -1.6 0 -3 -1.8 -3 -4 c 0 -2.8 -1.4 -4 -4.2 -4 c -2.4 0 -6.8 -2.2 -9.6 -5 c -9.2 -9 -16.8 -15 -18.4 -15 c -1 0 -1.8 -1.2 -1.8 -2.4 c 0 -2.4 -13 -9.6 -17.2 -9.6 c -1 0 -4.6 -2.6 -8 -5.8 c -3.2 -3.2 -8 -6.4 -10.4 -7 c -2.4 -0.8 -4.4 -2.4 -4.4 -3.4 c 0 -1 -1.6 -1.8 -3.6 -1.8 c -2 0 -4.4 -0.8 -5.6 -1.6 c -1 -1 -7.6 -3.4 -14.8 -5.4 c -7.2 -2.2 -13.6 -4.6 -14.4 -5.8 c -0.8 -1.2 -2.4 -1 -4.4 0.6 c -2.2 1.8 -3.2 2 -3.2 0.4 c 0 -1.4 -5 -2.2 -14 -2.2 c -10.2 0 -13.8 -0.6 -13.4 -2.4 c 0.2 -1.8 -2.6 -2.8 -8.6 -3.2 c -16.6 -0.8 -28 -2.8 -28 -4.6 c 0 -1 -3.2 -1.8 -7 -1.8 c -3.8 0 -7 -0.6 -7 -1.6 c 0 -0.8 -4.6 -1.6 -10.2 -1.8 c -5.6 -0.2 -11.2 -1.2 -12.2 -2.2 c -1.2 -1.2 -9 -1.6 -19 -1 c -11.4 0.8 -17.4 0.4 -18.4 -1 c -1 -1.6 -4.8 -1.8 -12.2 -0.8 c -6 1 -17.8 1.4 -26 1.2 c -10 -0.2 -16.4 0.6 -19.4 2.4 c -2.4 1.6 -6.6 2.8 -9.4 2.8 c -2.6 0 -5.2 1 -5.6 2.2 c -0.6 1.8 -2 1.8 -5.4 -0.2 c -4 -2 -5 -2 -6.6 0.8 c -1.2 2 -4.4 3.2 -8.6 3.2 c -3.8 0 -7 1 -7 2 c 0 2.8 -7.6 2.4 -8.4 -0.4 c -0.6 -1.8 -1.8 -1.6 -4.4 1 c -2 1.8 -6 3.4 -9.2 3.4 c -3.2 0 -6.4 1 -7 2 c -0.6 1.2 -4.2 2 -8 2 c -3.6 0 -7 1 -7.4 2.4 c -0.6 1.4 -6.4 2.8 -14.2 3.2 c -9.4 0.6 -13.4 1.6 -13.4 3.6 c 0 1.4 -3.2 3.2 -7.4 4 c -4.2 0.8 -8.4 2 -9.6 2.8 c -1 0.8 -6 2.2 -10.8 3 c -5 0.8 -12 3.2 -15.6 5.2 c -3.8 2.2 -8.8 3.8 -11.4 3.8 c -2.8 0 -5.2 0.8 -5.6 2 c -0.2 1 -4.6 2.4 -9.6 3 c -4.8 0.6 -9.2 1.8 -10 2.8 c -0.6 0.8 -5.2 2.2 -10.4 3 c -5.2 0.8 -9.8 2.6 -10.4 4.2 c -0.6 2 -3.8 3 -8.8 3 c -4.2 0 -8.6 1 -9.8 2.2 c -1.2 1.2 -7.8 2.6 -14.8 3.2 c -7 0.4 -21.6 2.6 -32.4 4.8 c -10.8 2 -21.8 3.8 -24.6 3.8 c -2.6 0 -4.8 0.8 -4.8 1.8 c 0 1 -9.2 2.4 -20.4 3.2 c -11.4 0.8 -21 2.2 -21.6 3 c -1.4 2.4 -50 5 -50 2.8 c 0 -1 -9.6 -1.6 -21.4 -1.4 c -12 0.4 -24.8 -0.2 -28.6 -1.2 c -14.2 -3.6 -31.4 -6.8 -42 -7.8 c -6 -0.4 -11.6 -1.6 -12.2 -2.8 c -1.2 -2 -30.4 -9.6 -37.2 -9.6 c -2.6 0 -4.6 -0.8 -4.6 -2 c 0 -1 -3.6 -2 -8 -2 c -4.4 0 -8 -0.8 -8 -2 c 0 -1 -2.6 -2 -6 -2 c -3.2 0 -6 -0.8 -6 -2 c 0 -1 -1.8 -2 -4 -2 c -2.2 0 -4 -1 -4 -2.2 c 0 -1.4 -1.6 -3.8 -3.6 -5.6 c -7.6 -7 -8.6 -9.4 -6.4 -15.2 c 1.6 -4.4 2.6 -5 4.8 -3.2 c 1.6 1.4 3.4 1.6 4 0.6 c 0.6 -1 19.6 -1.6 42.6 -1.2 c 22.8 0.2 49.2 -0.2 58.6 -1 c 9.4 -1 17.8 -0.8 18.8 0 c 3 2.6 12.8 2.2 13.8 -0.6 c 0.8 -2 1.4 -2 3 0 c 1.4 2 7.4 2.4 26.6 1.4 c 33.4 -1.4 49.8 -3 49.8 -4.8 c 0 -0.8 9.2 -2.4 20.6 -3.6 c 26.8 -3 43.4 -6.8 43.4 -10 c 0 -1.8 3 -2.6 8.6 -2.6 c 4.6 0 11 -1.4 14.2 -3 c 3 -1.6 9.4 -3 14 -3 c 4.6 0 9.2 -0.8 10.4 -2 c 1 -1 7.2 -2.4 13.8 -3 c 12.2 -1.4 27 -6.6 27 -9.8 c 0 -0.8 1.4 -1.2 3 -0.6 c 3.6 1.6 25 -2.8 25 -5 c 0 -0.8 2.2 -1.6 5 -1.6 c 2.8 0 5 -1.2 5 -2.8 c 0 -1.6 3.2 -3.2 8.4 -3.8 c 4.8 -0.6 8.8 -2.2 9.2 -3.2 c 0.4 -1.2 3.8 -2.2 7.4 -2.2 c 3.6 0 9.2 -1.4 12.2 -3 c 3.2 -1.6 8.2 -3 11.4 -3 c 3 0 5.4 -0.8 5.4 -1.8 c 0 -0.8 6 -2.2 13.4 -2.8 c 7.4 -0.8 13.8 -2 14.4 -3 c 1.2 -1.6 29 -8.4 34.8 -8.4 c 1.8 0 5 -1.8 6.8 -4 c 2.8 -3.2 6 -4 16 -4 c 7 0 12.6 -0.8 12.6 -1.8 c 0 -0.8 5 -2.2 11.4 -2.8 c 6.2 -0.6 11.8 -2 12.4 -3 c 2 -3 31.8 -4.6 32.8 -1.8 c 0.6 1.8 1.8 1.6 4.2 -0.4 c 2.8 -2.4 4.2 -2.4 7.6 -0.4 c 2.8 1.8 4.6 1.8 6.6 0.2 c 1.8 -1.4 4 -1.6 6.4 -0.4 c 5.8 3 16.6 4.6 16.6 2.4 c 0 -2.6 25.4 -2.6 27 0 c 0.6 1.2 3.4 2 6.2 2 c 2.6 0 4.8 0.8 4.8 1.8 c 0 1 4.2 2.2 9.6 2.8 c 18.2 1.8 27.4 3.6 28 5.6 c 0.4 1 2.2 1.8 4.2 1.8 c 1.8 0 4.4 1 5.8 2.4 c 1.6 1.6 2.4 1.8 2.4 0.2 c 0 -2.8 34.2 -1.6 36 1.4 c 0.8 1.2 6 2.2 11.6 2.2 c 5.8 0.2 10.4 1.2 10.4 2 c 0 1 2.2 1.8 4.8 1.8 c 2.6 0 5.2 1.2 5.8 2.6 c 0.4 1.2 5.2 3.6 10.6 5 c 5.4 1.6 14.8 5.4 20.8 8.8 c 6 3.2 13.4 7 16.6 8.2 c 3 1.2 5.4 3.4 5.4 4.8 c 0 1.4 0.8 2.6 1.6 2.6 c 1 0 3.4 1.6 5.6 3.6 c 2.2 1.8 6 4.6 8.4 6 c 2.4 1.2 6.4 3.6 8.8 5 c 5.8 3.2 9.6 6.6 9.6 8.8 c 0 0.8 2.4 3.4 5.2 5.6 c 2.8 2 7 5.4 9.4 7.6 c 2.4 2 6.6 4.6 9 5.6 c 2.6 1 5.2 3.6 5.8 5.8 c 0.6 2.2 1.8 4 2.8 4 c 0.8 0 5.4 3.6 9.8 8 c 4.4 4.4 8.8 8 9.6 8 c 0.8 0 2.8 1.8 4.4 4.2 c 4.8 6.6 12.2 14.2 22.2 22.4 c 5 4 10.8 11 13 15.4 c 2 4.4 4.4 8 5.4 8 c 0.8 0 1.4 1.4 1.4 3 c 0 1.6 0.8 3 1.6 3 c 2.2 0 8.4 13.2 8.4 18 c 0 2 1 4.4 2 5 c 1.2 0.6 2 3.8 2 7.2 c 0 3.2 -0.8 5.8 -2 5.8 c -1 0 -2 1.4 -2 3 c 0 1.6 -0.8 3 -2 3 c -3 0 -2.4 8.8 1 13.2 c 1.6 2 3 7 3 10.8 c 0 3.8 1.6 11 3.4 16 c 2.8 7.4 3.4 17.2 3.4 56.8 c 0.2 36.6 -0.4 48 -2.2 48.6 c -1.6 0.6 -2.6 4.2 -2.6 8.8 c 0 4.2 -0.8 7.8 -2 7.8 c -1 0 -2 2.8 -2 6 c 0 3.4 -0.6 6 -1.6 6 c -0.8 0 -3 7.2 -5 16 c -2.4 10.8 -4.6 16 -6.4 16 c -1.8 0 -4.2 4.4 -6.2 11.6 c -1.8 6.2 -4.4 12.4 -5.6 13.4 c -1.4 1.2 -3.2 4.4 -4 7.6 c -0.6 3 -2.2 5.4 -3.4 5.4 c -2.6 0 -11.8 10 -11.8 12.8 c 0 1.2 -2.8 5 -6 8.6 c -3.4 3.6 -6 7.2 -6 8.4 c 0 4.6 -7.2 16.2 -10.2 16.2 c -1.8 0 -4.2 2.2 -5.4 5 c -1.4 2.8 -3.6 7.4 -4.8 10.4 c -1.4 2.8 -4.2 5.6 -6 6.2 c -2 0.4 -3.6 2 -3.6 3.4 c 0 1.6 -1.8 3.4 -4 4 c -2.2 0.6 -4 2.2 -4 3.2 c 0 2.8 -17.2 19.8 -19.8 19.8 c -1.2 0 -2.2 1.4 -2.2 3 c 0 1.6 -0.8 3 -2 3 c -1 0 -3.6 1.6 -5.6 3.6 c -2.2 1.8 -5.6 5 -7.6 6.8 c -2 2 -6 5.8 -8.8 8.6 c -2.6 2.8 -6 5 -7.4 5 c -1.2 0 -4.2 3.4 -6.6 7.6 c -2.2 4 -7.2 9.4 -11 12 c -3.8 2.4 -7 5.4 -7 6.6 c 0 1 -0.8 1.4 -2 0.8 c -1 -0.6 -2 -0.2 -2 0.8 c 0 1.2 -2.2 2.2 -5 2.2 c -3.6 0 -5.6 1.4 -7 4.8 c -1 2.6 -3.6 5.4 -5.8 6.2 c -2.4 0.6 -4.2 2.2 -4.2 3.2 c 0 1 -1.8 1.8 -4 1.8 c -2.4 0 -5.6 1.2 -7.2 2.6 c -8.6 7 -14.8 13 -14.8 14.6 c 0 1.6 -21.2 12.8 -24.4 12.8 c -0.8 0 -3.8 2.2 -6.8 5 c -3.2 3 -7.8 5 -11.2 5 c -4 0 -7.8 2 -11.6 6 c -3.4 3.6 -7.6 6 -10.8 6 c -2.8 0 -5.2 0.6 -5.2 1.6 c 0 2.6 -12.2 8.4 -18.2 8.4 c -3.2 0 -5.8 0.8 -5.8 1.8 c 0 2.8 -11.6 6.8 -16 5.6 c -2.2 -0.6 -4 -0.2 -4 0.8 c 0 1 -1.8 1.8 -4 1.8 c -2.2 0 -4 1 -4 2.2 c 0 1.2 -1.2 1.8 -2.8 1.2 c -4.4 -1.8 -19.2 2.8 -19.2 5.8 c 0 1.6 -2.2 2.8 -5.2 2.8 c -6.4 0 -31.6 6.6 -32.4 8.4 c -0.4 0.8 -3.4 1 -6.6 0.2 c -3.6 -0.6 -5.8 -0.2 -5.8 1.2 c 0 1.2 -3.6 2.2 -8.6 2.2 c -4.8 0 -9.4 0.8 -10.6 2 c -1 1 -6.4 2.4 -11.8 3.2 c -5.6 0.6 -11.8 1.8 -14 2.8 c -3.8 1.6 -21.4 4.2 -30.4 4.4 c -2.6 0 -4.6 0.6 -4.6 1.4 c 0 0.8 -6.2 1.2 -14 1.2 c -7.6 0 -14 0.4 -14 1.2 c 0 0.8 -8.6 1.6 -19 2.2 c -17.4 0.8 -25.6 2.8 -19.4 5 c 1.2 0.6 2.4 1.8 2.4 3 c 0 2.4 5 7.6 7.4 7.6 c 1 0 3.8 2.2 6.2 5 c 2.4 2.8 7.2 5.6 10.4 6.4 c 3.4 0.6 6 1.8 6 2.8 c 0 1 2.2 1.8 5 1.8 c 2.6 0 5.6 1.2 6.4 2.6 c 2.6 4.6 12.4 10 15.6 8.6 c 1.8 -0.6 3.8 0.6 5 2.8 c 1.2 2.2 3.2 4 4.6 4 c 1.4 0 4.6 1.8 7 4 c 2.4 2.2 6.6 4 9.4 4 c 2.8 0 5 1.2 5 2.6 c 0 1.6 4.4 3.8 10 5.4 c 5.6 1.6 10.4 4.2 11 6 c 0.6 1.8 3 3.2 5.4 3.4 c 2.2 0.2 4.8 1.2 5.4 2 c 2 2.6 9.8 6.6 13.2 6.6 c 1.6 0 3.8 1.8 5 4 c 1.2 2.2 3 3.6 4.2 3 c 1 -0.8 1.8 -0.2 1.8 0.8 c 0 1.2 1 2.2 2.2 2.2 c 2.8 0 6.6 4 8.6 9 c 1 3 1.8 3.4 3 1.2 c 1.4 -2.2 2.6 -2 6.4 1.6 c 2.4 2.2 6.6 4.2 9 4.2 c 2.6 0 4.8 1.6 5.4 4 c 0.6 2.6 2 3.6 4.2 2.8 c 2 -0.8 3.6 0.2 4.6 2.4 c 1.8 5.2 6.8 8.6 12 8.8 c 2.4 0 5 1 5.6 2 c 0.6 1.2 3.2 2 5.8 2 c 2.8 0 5.6 2 7.2 5 c 1.8 3.6 4.4 5 8.4 5 c 3.2 0 5.6 1 5.6 2.6 c 0 2.8 9 7.8 21 11.6 c 4.4 1.4 10 4.6 12.6 7.2 c 2.6 2.6 6.2 4.6 8.2 4.6 c 2.2 0 4.2 1.2 4.8 2.8 c 0.6 1.8 3 2.4 6.2 1.8 c 3 -0.6 5.2 -0.2 5.2 1.2 c 0 1.2 1.8 2.2 4 2.2 c 2.2 0 4 1 4 2 c 0 1.2 1.8 2 4.2 2 c 2.4 0 4.6 1.6 5.2 4 c 0.8 3 2.8 4 7.6 4 c 5.4 0 6.8 1 7.8 5 c 1 4 2.6 5 7.2 5 c 3.2 0 6.2 0.8 6.8 1.8 c 0.6 1 4.4 2.4 8.2 3 c 4.4 1 7 2.6 7 4.6 c 0 1.8 1.2 2.6 2.8 2 c 3.8 -1.6 15.2 2.8 15.2 5.8 c 0 2.8 4.6 4.8 10.4 4.8 c 2.2 0 6.2 2.4 8.6 5.2 c 2.8 3.2 5 4.4 5.8 3 c 0.8 -1.4 2.6 -0.8 4.8 1.4 c 1.8 1.8 9 4.6 16 6.2 c 7.8 1.6 12.4 3.8 12.4 5.4 c 0 1.8 2.4 2.8 7 2.8 c 3.8 0 7 0.8 7 1.8 c 0 1 2 2.2 4.6 3 c 2.6 0.6 7.2 3.4 10.6 6.2 c 6.2 5.4 10 6.4 11.2 3 c 0.4 -1.2 2.6 -0.4 5 2 c 2.4 2.2 6.2 4 8.6 4 c 2.2 0 4 1 4 2 c 0 1.2 2.2 2 5 2 c 2.8 0 5 1 5 2.2 c 0 1.2 1.4 3.4 3.2 5.2 c 2.4 2.4 4 2.6 7.6 1 c 3.8 -1.6 5.2 -1.4 7.8 1.8 c 1.8 2 5.6 3.8 8.2 3.8 c 2.8 0 5.6 1 6.2 2 c 0.6 1.2 3 2 5.2 2 c 2 0 3.8 1 3.8 2.2 c 0 1 1.6 1.8 3.6 1.6 c 1.8 -0.2 5 0.4 7.2 1.2 c 2.2 1 5.2 0.6 7.4 -0.6 c 4.4 -2.8 9.2 -1.2 10.8 3.6 c 1.2 3.8 11 6.6 16 4.8 c 1.6 -0.8 3 -0.2 3 1 c 0 1.2 3.8 2.2 9 2.2 c 5 0 9 1 9 2 c 0 1.2 2.8 2 6 2 c 3.4 0 6 0.8 6 2 c 0 1 2.6 1.4 6 0.8 c 3.4 -0.8 6 -0.6 6 0.4 c 0 1 4.6 2 10 2.2 c 5.6 0.2 13.4 1.4 17.6 2.6 c 4 1 10.8 2 15 2 c 4.2 0 9 1.2 10.4 2.6 c 2.8 2.8 23 6.2 34.6 5.6 c 3.4 0 6.4 0.8 6.4 1.8 c 0 1.2 1.4 2 3 2 c 1.6 0 3 -0.8 3 -2 c 0 -3.8 7.8 -2 9 2.2 c 1.2 3.4 1.8 3.6 4.4 1.4 c 2.6 -2 3.4 -2 4 -0.2 c 0.8 2 4.6 2.2 14.8 1.4 c 9.8 -1 13.8 -0.8 13.8 1 c 0 3 11.4 2.8 12.6 -0.2 c 0.8 -2 1.6 -2 4.6 0 c 2.2 1.2 5.8 3.2 8.4 4.4 c 2.4 1 4.4 3 4.4 4.4 c 0 1.6 1 1.2 2.2 -0.8 c 2.6 -4.6 19.4 -5 21 -0.6 c 0.8 1.6 2 3 3 3 c 1 0 1.8 -1.4 1.8 -3 c 0 -1.8 1.8 -3 5 -3 c 3 0 5 1.2 5 2.8 c 0 2.2 3.4 2.8 14.6 2.8 c 11.8 0 77 1.8 81.8 2.2 c 0.8 0.2 2.6 1.4 4.2 3 c 2 2 10 3.4 25.6 4.2 c 12.6 0.8 24.8 2.2 27.4 3.6 c 3.4 1.6 6.2 1.6 11 -0.2 c 7.4 -2.6 29.4 -1 32.4 2.4 c 3.2 3.6 11 4 11 0.4 c 0 -2.2 1.8 -3.2 6 -3.2 c 3.4 0 6 0.8 6 2 c 0 2.6 12.4 5.8 15 3.8 c 1.2 -0.8 8.4 -1.6 16 -1.8 z m -2673.8 -42.4 c 1.6 -5.6 8.2 -11.6 12.6 -11.6 c 4.2 -0.2 10.2 -4.8 10.2 -8 c 0 -1.4 2.2 -4.6 4.8 -7 c 2.6 -2.4 5.4 -6.2 6 -8.6 c 0.8 -2.4 3.4 -4.8 5.8 -5.6 c 2.4 -0.8 5.6 -3 7 -5 c 1.4 -2.2 3.8 -3.8 5.2 -3.8 c 1.4 0 3.6 -2.2 4.8 -5 c 1.2 -2.8 3.2 -5 4.4 -5 c 1 0 2 -1 2 -2.2 c 0 -3 4.4 -7 9.6 -8.6 c 2.4 -0.8 4.4 -2.2 4.4 -3.2 c 0 -1 3.6 -5.2 7.8 -9.6 c 4.4 -4.4 7.4 -8.6 6.8 -9.2 c -0.6 -0.6 0.4 -1.8 2.6 -2.6 c 5.8 -2.2 12.8 -9 12.8 -12.6 c 0 -1.8 1.8 -5.2 4 -7.6 c 2.2 -2.4 4 -5 4 -6 c 0 -1 4 -5.2 9.2 -9.6 c 5 -4.2 10.6 -11 12.4 -14.8 c 1.8 -3.8 4.8 -8.4 6.8 -10.4 c 2 -2 3.6 -4.4 3.6 -5.6 c 0 -1 1 -2 2 -2 c 3.6 0 12 -9.6 12 -13.4 c 0 -2 2.8 -5.8 6 -8.6 c 3.4 -2.8 6 -6 6 -7.4 c 0 -1.4 1.4 -2.6 3 -2.6 c 1.6 0 3 -0.8 3 -2 c 0 -1 1.6 -3.8 3.4 -5.8 c 1.8 -2.2 3.6 -5.6 3.8 -7.6 c 0.4 -2 1.6 -3.8 2.6 -4.2 c 1.2 -0.4 2.2 -2 2.2 -3.4 c 0 -1.4 1.8 -3 4 -3.6 c 2.4 -0.6 4 -2.8 4 -5.2 c 0 -2.4 1 -4.2 2 -4.2 c 1.2 0 2 -3 2 -6.8 c 0 -5.2 1 -7 4.2 -7.8 c 2.2 -0.6 4.6 -3 5.2 -5.2 c 0.6 -2.4 1.8 -4.2 2.8 -4.2 c 1 0 1.8 -1.8 1.8 -3.8 c 0 -2.2 1 -4.2 2.2 -4.6 c 1.2 -0.4 2.4 -3.6 2.6 -7 c 0.2 -3.4 1 -7 1.8 -7.8 c 0.8 -0.8 1.4 -3.6 1.4 -6.2 c 0 -2.4 1 -4.6 2 -4.6 c 1.2 0 2 -3 2 -6.8 c 0 -3.8 0.8 -7.2 1.8 -7.6 c 2.6 -0.8 18.2 -48.6 18.2 -55.6 c 0 -3 1.2 -6 2.6 -6.6 c 1.8 -0.6 1.8 -1.4 -0.4 -4 c -1.8 -2.2 -2 -3.4 -0.4 -3.4 c 1.2 0 2.2 -1.4 2.2 -3 c 0 -1.6 1.4 -3 3 -3 c 2 0 3 -2 3 -6.8 c 0 -3.8 1 -7.6 2 -8.2 c 1.2 -0.6 2 -3.8 2 -7.2 c 0 -3.2 0.8 -5.8 1.8 -5.8 c 1.4 0 3.4 -9.6 4.8 -23 c 0.2 -2.2 1.2 -4.6 2 -5.2 c 0.8 -0.6 1.6 -7.2 1.8 -14.6 c 0 -7.2 0.8 -13.8 1.6 -14.2 c 0.8 -0.6 0.8 -4.6 0 -9.2 c -0.8 -4.4 -1 -9.8 -0.6 -12 c 0.6 -2 0.2 -3.8 -1 -3.8 c -1.2 0 -2.2 -1.6 -2.2 -3.4 c -0.4 -12 -4.4 -55.4 -6 -64.6 c -1.2 -6 -1.6 -17 -0.8 -24.4 c 0.8 -9.6 0.6 -13.6 -1.2 -13.6 c -1.2 0 -2.2 -2.2 -2.2 -4.8 c 0 -2.8 -0.8 -5.4 -1.8 -6 c -0.8 -0.6 -2.2 -6.6 -2.8 -13.2 c -0.8 -6.6 -2.6 -14.6 -4.2 -17.8 c -1.8 -3.2 -3.2 -9.2 -3.4 -13.4 c -0.4 -4.4 -1.8 -9.6 -3.2 -11.8 c -1.4 -2.2 -2.6 -7.8 -2.6 -12.4 c 0 -6.4 -0.8 -8.6 -3 -8.6 c -1.8 0 -3 -1.8 -3 -4.6 c 0 -2.6 -0.8 -5.4 -1.8 -6.4 c -1.8 -1.8 -4.4 -13.6 -8.2 -38.8 c -1 -5.8 -2.6 -11.6 -3.8 -12.8 c -1.2 -1.2 -2.2 -6.4 -2.2 -11.6 c 0 -5.2 -0.8 -10 -1.8 -10.8 c -2 -1.2 -3.8 -10.4 -5.2 -29 c -0.6 -6 -1 -11.8 -1.2 -13 c -0.8 -8.6 1.2 -27 2.8 -27 c 1.2 0 1.4 -4 0.8 -10.4 c -0.8 -5.6 -0.4 -14 0.6 -18.4 c 1 -4.6 2.2 -12.2 2.6 -17.2 c 0.8 -8 0.2 -9.4 -3.8 -11.4 c -3.6 -1.6 -5.4 -1.4 -8.2 1.2 c -2 1.8 -5.2 4 -7.2 4.8 c -1.8 0.8 -4 3 -4.8 4.8 c -0.8 2 -2.8 5 -4.6 6.6 c -1.8 1.6 -3.8 4.6 -4.6 6.6 c -0.6 1.8 -2.6 3.4 -4.4 3.4 c -1.6 0 -3 1.2 -3 2.8 c 0 1.4 -2.6 4.6 -6 7.2 c -3.2 2.4 -6.4 6.2 -7 8 c -0.6 2 -3.4 4.2 -6 4.8 c -2.8 0.8 -4.8 2 -4.4 2.8 c 0.8 2.8 -8.6 16.4 -11.6 16.4 c -1.6 0 -3 0.6 -3 1.6 c 0 0.8 -2.8 4.2 -6 7.8 c -3.4 3.6 -6 7.4 -6 8.8 c 0 3.4 -8 11.8 -11.4 11.8 c -1.6 0 -2.6 2.4 -2.6 6 c 0 3.4 -0.8 6 -2 6 c -1 0 -2 1.8 -2 4 c 0 2.4 -1.4 4 -3.4 4 c -3.4 0 -12.6 11.6 -12.6 15.8 c 0 1 -2 2.2 -4.4 2.6 c -3.4 0.4 -4.8 2.2 -5.2 6.2 c -0.4 3 -1.6 5.4 -2.6 5.4 c -1 0 -1.8 1 -1.8 2.2 c 0 1.2 -2.6 4.8 -6 8.2 c -3.4 3.2 -6 7.2 -6 8.8 c 0 1.6 -1.2 2.8 -2.4 2.8 c -2.6 0 -7.6 8.8 -7.6 13.2 c 0 1.4 -0.6 2.8 -1.4 3.2 c -2.6 1 -10.6 13.4 -10.6 16.2 c 0 1.4 -2 3.8 -4.4 5.2 c -5.2 2.8 -17.6 22 -17.6 27 c 0 1.8 -1.2 3.8 -2.8 4.4 c -1.6 0.6 -3.8 3.6 -5.2 6.8 c -1.4 3.2 -3.6 6.2 -5.2 6.8 c -1.6 0.6 -2.8 3.2 -2.8 6 c 0 2.6 -0.8 5.2 -1.8 5.6 c -2.4 0.8 -13.4 21.6 -15 28.2 c -0.6 3 -2.6 5.4 -4.2 5.4 c -1.8 0 -3.6 2.4 -4.2 5.8 c -0.8 3.2 -3 7.8 -5 10 c -2 2.2 -3.2 5.4 -2.6 7 c 0.6 1.6 -0.8 5 -3.2 7.6 c -2.4 2.6 -4.8 7 -5.4 10.2 c -0.6 3 -2 6 -2.8 6.6 c -1 0.6 -1.4 2 -0.8 3 c 0.8 1 -0.2 1.8 -1.8 1.8 c -1.8 0 -5.2 4.2 -7.6 9.6 c -2.4 5.2 -5.2 9.8 -6 10 c -0.8 0.4 -1.6 3 -1.6 5.6 c 0 4.4 -3.4 12.4 -6.2 14.8 c -0.6 0.6 -1.8 3.4 -2.6 6.6 c -0.6 3 -2.2 5.4 -3.2 5.4 c -1.2 0 -2 1.6 -2 3.6 c 0 2 -2.6 8.8 -6 15 c -3.2 6.4 -6 14.6 -6 18.2 c 0 3.8 -1.4 9.4 -3 12.4 c -1.6 3.2 -3 8.6 -3 12.2 c 0 3.4 -1.6 7.8 -3.4 9.8 c -2 1.8 -3.6 4.4 -4 5.6 c -0.2 1.2 -2 9 -3.8 17.2 c -1.8 8.2 -4 16 -5.2 17.4 c -1 1.4 -1 2.6 0 3.4 c 2 1.2 1.6 7 -1.6 31.2 c -2 13.4 -1.2 80 1 86.6 c 0.4 1.2 1.2 7.8 1.8 14.2 c 0.6 6.6 2 12.8 3.2 14 c 1 1 2 6.8 2 12.6 c 0 5.8 0.8 10.6 1.8 10.6 c 1.2 0 2.6 4 3.4 9 c 0.6 5 2 9.6 3 10.2 c 1 0.6 1.8 2.6 1.8 4.6 c 0 2 1.4 6.4 3 9.4 c 1.6 3.2 3 8.8 3 12.4 c 0 4.4 1 6.4 3 6.4 c 1.6 0 3 1.6 3 3.8 c 0 2 1.4 6.4 3 9.4 c 1.6 3.2 3 8.2 3 11.2 c 0 3 0.8 5.8 1.8 6.4 c 1 0.6 2.4 4.4 3 8.2 c 0.8 3.8 2.2 7 3.2 7 c 1.2 0 2 2.8 2 6.2 c 0 3.4 1.4 7.4 3 9 c 1.6 1.8 3 4.8 3 6.8 c 0 4.4 4.8 14 8 16 c 1.2 0.8 2.8 5.2 3.4 9.8 c 0.6 4.4 2 8.2 2.8 8.2 c 1 0 1.8 1.8 1.8 4 c 0 2.2 0.8 4 1.8 4 c 1 0 2.4 2.8 3.2 6 c 0.8 3.4 2.2 6 3.2 6 c 1 0 1.8 1.6 1.8 3.6 c 0 5.2 10.4 24.4 13.4 24.4 c 1.4 0 2.6 1.2 2.6 2.6 c 0 2.8 3.8 7.4 6.2 7.4 c 0.8 0 2.2 -2 3 -4.4 z m 1368.8 -12.4 c 0 -0.4 19.4 -62.8 43.2 -138.6 c 23.8 -75.6 43.8 -140.4 44.8 -143.8 c 1.2 -5 0.6 -7 -2.2 -9.6 c -2.2 -1.8 -5.2 -3.2 -6.8 -3.2 c -1.6 0 -3 -0.8 -3 -2 c 0 -1 -1.2 -2 -2.6 -2 c -1.4 0 -3.8 -1.8 -5.4 -4 c -1.6 -2.2 -4.4 -4 -6.4 -4 c -1.8 0 -4 -0.8 -4.6 -2 c -0.6 -1 -4.4 -2 -8.2 -2 c -3.8 0 -6.8 -0.8 -6.8 -2 c 0 -1 -3.6 -2 -8 -2 c -5.8 0 -8 -0.8 -8 -3 c 0 -1.8 -1.8 -3 -4.6 -3 c -2.6 0 -5.6 -1 -6.8 -2.2 c -1.8 -1.8 -11.8 -4 -33 -7.2 c -4.2 -0.6 -7.6 -1.8 -7.6 -2.8 c 0 -1 -2.2 -1.8 -4.8 -1.8 c -2.8 0 -5.6 -0.8 -6.2 -2 c -0.6 -1 -3.2 -2 -5.4 -2 c -2.2 0 -5.2 -1.4 -6.6 -3.4 c -2.4 -3.2 -8 -1.8 -6 1.6 c 0.8 1 -0.2 1.8 -1.8 1.8 c -1.8 0 -3.2 -1.4 -3.2 -3 c 0 -1.6 -1.8 -3 -4 -3 c -2.2 0 -4 -0.8 -4 -2 c 0 -1 -1.6 -1.8 -3.4 -1.4 c -4.8 0.6 -30.6 -7.2 -30.6 -9 c 0 -1 -1.8 -0.6 -4 0.8 c -3 2 -5.8 2 -13.4 0 c -5.2 -1.4 -9.8 -3.4 -10.2 -4.6 c -0.4 -1 -4.2 -1.8 -8.6 -1.8 c -5.6 0 -7.8 -0.8 -7.8 -3 c 0 -2.2 -2.2 -3 -7.6 -3 c -4.2 0 -8.4 -0.6 -9.2 -1.4 c -0.8 -0.8 -5.4 -1.2 -10.2 -0.8 c -5.4 0.2 -9 -0.4 -9 -1.6 c 0 -1.2 -2.6 -2.2 -5.8 -2.2 c -3.4 0 -6.6 -0.8 -7.2 -2 c -2 -3.2 -9 -2.4 -9 1 c 0 1.6 11.8 58.2 26.2 125.4 c 14.4 67.4 26.2 124.8 26.2 127.6 c 0 5 16.6 81.8 18 83 c 1.2 1.2 126.6 40.6 130.2 40.8 c 1.8 0.2 3.4 -0.2 3.4 -0.6 z" stroke-linecap="round"/>
</g>
		<g transform="matrix(1 0 0 1 -903.2064 -762.9353)">
<path style="stroke: none; stroke-width: 1; stroke-dasharray: none; stroke-linecap: butt; stroke-dashoffset: 0; stroke-linejoin: miter; stroke-miterlimit: 4; is-custom-font: none; font-file-url: none; fill: currentColor; fill-rule: nonzero; opacity: 1;" transform=" translate(-2096.7936, -924.5647)" d="M 2072.8 1009.4 c -1.6 -1 -4.2 -1.2 -5.6 -0.8 c -1.6 0.6 -5.2 -0.2 -8.2 -1.8 c -3 -1.6 -7.6 -2.8 -10.2 -2.8 c -3 0 -4.8 -1.2 -4.8 -3 c 0 -2 -2 -3 -6.6 -3 c -4.2 0 -7.6 -1.4 -9.4 -4 c -1.6 -2.2 -4.8 -4 -7 -4 c -5 -0.2 -21 -14.2 -21 -18.6 c 0 -1.8 -0.8 -3.4 -2 -3.4 c -1 0 -2 -1.4 -2 -3 c 0 -1.6 -1.2 -3 -2.4 -3 c -3.4 0 -9.6 -11.2 -9.6 -17.2 c 0 -2.6 -1 -4.8 -2.2 -4.8 c -2.8 0 -0.6 -31.8 2.4 -34.8 c 1 -1.2 1.8 -4 1.8 -6.6 c 0 -2.8 1.2 -4.6 3 -4.6 c 1.8 0 3 -1.8 3 -4.6 c 0 -2.8 4 -9 10 -15.4 c 5.6 -5.8 10 -11.4 10 -12.4 c 0 -0.8 2.2 -1.6 4.8 -1.6 c 3 0 5.2 -1.4 5.8 -3.8 c 0.4 -2 4.6 -5.4 9.2 -7.4 c 4.4 -2 8.2 -4.2 8.2 -4.8 c 0 -4.2 56.6 -8 63 -4.4 c 1 0.8 5 1 8.8 0.6 c 3.6 -0.2 7.4 0.6 8.2 1.8 c 0.8 1.4 5 2.6 9.2 3 c 9.8 0.6 14.8 2.6 14.8 6 c 0 1.6 2.6 2.6 7.2 2.6 c 4 0 7.8 0.8 8.6 1.8 c 0.6 1.2 3.8 2.6 6.8 3.4 c 3 0.6 9.4 5.4 14.4 10.2 c 4.8 5 9.8 9 10.8 9 c 1.2 0 2.2 0.8 2.2 2 c 0 1 3.2 6 7 11.2 c 3.8 5 7 11.2 7 13.6 c 0 2.4 0.8 5.2 1.8 6.4 c 2.6 2.8 4.6 32.8 2.2 32.8 c -1.2 0 -2 4.8 -2 10.8 c 0 6 -0.8 11.6 -2 12.2 c -1 0.6 -2 3 -2 5 c 0 2 -1.8 4.4 -4 5 c -2.2 0.6 -4 2 -4 3 c 0 0.8 -3.2 3 -7 4.8 c -3.8 1.8 -7 4.2 -7 5.2 c 0 1.2 -1.8 2 -4 2 c -2.2 0 -4 1.4 -4 3 c 0 1.6 -1.8 3 -3.8 3 c -2.2 0 -4.2 0.8 -4.6 1.8 c -0.2 1.2 -5 2.4 -10.6 2.8 c -11.6 1 -29 5.4 -29 7.2 c 0 1.8 -51.8 1.4 -55.2 -0.4 z" stroke-linecap="round"/>
</g>
</g>
</g>
</svg>